<svg xmlns="http://www.w3.org/2000/svg" width="2200" height="1700" viewBox="0 0 2200 1700">
<rect width="2200" height="1700" fill="#f8fafc" />
<rect x="0" y="0" width="2200" height="120" fill="#e2e8f0" />
<text x="44" y="66" font-size="38" fill="#0f172a" font-family="Microsoft YaHei, Arial, sans-serif">WeatherWear 技术架构图</text>
<text x="44" y="100" font-size="20" fill="#334155" font-family="Microsoft YaHei, Arial, sans-serif">参考教材式分层大框结构，突出前端、后端、编排、服务与外部资源的关系</text>
<rect x="50" y="150" width="2100" height="240" fill="#f5f5f4" stroke="#312e49" stroke-width="4" /><text x="1100.0" y="184" text-anchor="middle" font-size="24" fill="#111827" font-family="Microsoft YaHei, Arial, sans-serif">前端层（React + TypeScript）</text><rect x="120" y="430" width="1960" height="220" fill="#f5f5f4" stroke="#312e49" stroke-width="4" /><text x="1100.0" y="464" text-anchor="middle" font-size="24" fill="#111827" font-family="Microsoft YaHei, Arial, sans-serif">后端接口层（FastAPI）</text><rect x="30" y="760" width="2140" height="560" fill="#f5f5f4" stroke="#312e49" stroke-width="4" /><text x="1100.0" y="794" text-anchor="middle" font-size="24" fill="#111827" font-family="Microsoft YaHei, Arial, sans-serif">智能体 / 工作流层（Coordinator + Workflow）</text><rect x="80" y="1440" width="2040" height="190" fill="#f5f5f4" stroke="#312e49" stroke-width="4" /><text x="1100.0" y="1474" text-anchor="middle" font-size="24" fill="#111827" font-family="Microsoft YaHei, Arial, sans-serif">外部服务与持久化层</text><rect x="190" y="240" rx="8" ry="8" width="440" height="130" fill="#e5e7eb" stroke="none" /><rect x="180" y="230" rx="8" ry="8" width="440" height="130" fill="#dbeafe" stroke="#312e49" stroke-width="3" /><text x="400.0" y="277.0" text-anchor="middle" font-size="18" fill="#0f172a" font-family="Microsoft YaHei, Arial, sans-serif">主查询工作台 UI</text><text x="400.0" y="301.0" text-anchor="middle" font-size="18" fill="#0f172a" font-family="Microsoft YaHei, Arial, sans-serif">QueryWorkspace / QueryPa</text><text x="400.0" y="325.0" text-anchor="middle" font-size="18" fill="#0f172a" font-family="Microsoft YaHei, Arial, sans-serif">nel</text><rect x="1190" y="210" rx="8" ry="8" width="560" height="160" fill="#e5e7eb" stroke="none" /><rect x="1180" y="200" rx="8" ry="8" width="560" height="160" fill="#dbeafe" stroke="#312e49" stroke-width="3" /><text x="1460.0" y="274.0" text-anchor="middle" font-size="18" fill="#0f172a" font-family="Microsoft YaHei, Arial, sans-serif">结果可视化与调试视图</text><text x="1460.0" y="298.0" text-anchor="middle" font-size="18" fill="#0f172a" font-family="Microsoft YaHei, Arial, sans-serif">Result / Trace / Timeline</text><rect x="890" y="510" rx="8" ry="8" width="420" height="130" fill="#e5e7eb" stroke="none" /><rect x="880" y="500" rx="8" ry="8" width="420" height="130" fill="#fef3c7" stroke="#312e49" stroke-width="3" /><text x="1090.0" y="535.0" text-anchor="middle" font-size="18" fill="#0f172a" font-family="Microsoft YaHei, Arial, sans-serif">API 路由</text><text x="1090.0" y="559.0" text-anchor="middle" font-size="18" fill="#0f172a" font-family="Microsoft YaHei, Arial, sans-serif">/api/query</text><text x="1090.0" y="583.0" text-anchor="middle" font-size="18" fill="#0f172a" font-family="Microsoft YaHei, Arial, sans-serif">/api/history</text><text x="1090.0" y="607.0" text-anchor="middle" font-size="18" fill="#0f172a" font-family="Microsoft YaHei, Arial, sans-serif">/api/favorites</text><rect x="150" y="870" rx="8" ry="8" width="340" height="150" fill="#e5e7eb" stroke="none" /><rect x="140" y="860" rx="8" ry="8" width="340" height="150" fill="#f3e8ff" stroke="#312e49" stroke-width="3" /><text x="310.0" y="929.0" text-anchor="middle" font-size="18" fill="#0f172a" font-family="Microsoft YaHei, Arial, sans-serif">查询规划器</text><text x="310.0" y="953.0" text-anchor="middle" font-size="18" fill="#0f172a" font-family="Microsoft YaHei, Arial, sans-serif">Query Planner</text><rect x="570" y="870" rx="8" ry="8" width="420" height="150" fill="#e5e7eb" stroke="none" /><rect x="560" y="860" rx="8" ry="8" width="420" height="150" fill="#f3e8ff" stroke="#312e49" stroke-width="3" /><text x="770.0" y="929.0" text-anchor="middle" font-size="18" fill="#0f172a" font-family="Microsoft YaHei, Arial, sans-serif">总协调器</text><text x="770.0" y="953.0" text-anchor="middle" font-size="18" fill="#0f172a" font-family="Microsoft YaHei, Arial, sans-serif">MultiAgentCoordinator</text><rect x="1090" y="870" rx="8" ry="8" width="340" height="150" fill="#e5e7eb" stroke="none" /><rect x="1080" y="860" rx="8" ry="8" width="340" height="150" fill="#f3e8ff" stroke="#312e49" stroke-width="3" /><text x="1250.0" y="929.0" text-anchor="middle" font-size="18" fill="#0f172a" font-family="Microsoft YaHei, Arial, sans-serif">结果组装器</text><text x="1250.0" y="953.0" text-anchor="middle" font-size="18" fill="#0f172a" font-family="Microsoft YaHei, Arial, sans-serif">presentation.py</text><rect x="130" y="1130" rx="8" ry="8" width="300" height="150" fill="#e5e7eb" stroke="none" /><rect x="120" y="1120" rx="8" ry="8" width="300" height="150" fill="#ecfccb" stroke="#312e49" stroke-width="3" /><text x="270.0" y="1189.0" text-anchor="middle" font-size="18" fill="#0f172a" font-family="Microsoft YaHei, Arial, sans-serif">地点解析</text><text x="270.0" y="1213.0" text-anchor="middle" font-size="18" fill="#0f172a" font-family="Microsoft YaHei, Arial, sans-serif">city_resolver.py</text><rect x="530" y="1130" rx="8" ry="8" width="300" height="150" fill="#e5e7eb" stroke="none" /><rect x="520" y="1120" rx="8" ry="8" width="300" height="150" fill="#ecfccb" stroke="#312e49" stroke-width="3" /><text x="670.0" y="1177.0" text-anchor="middle" font-size="18" fill="#0f172a" font-family="Microsoft YaHei, Arial, sans-serif">天气查询</text><text x="670.0" y="1201.0" text-anchor="middle" font-size="18" fill="#0f172a" font-family="Microsoft YaHei, Arial, sans-serif">weather_service.</text><text x="670.0" y="1225.0" text-anchor="middle" font-size="18" fill="#0f172a" font-family="Microsoft YaHei, Arial, sans-serif">py</text><rect x="930" y="1130" rx="8" ry="8" width="300" height="150" fill="#e5e7eb" stroke="none" /><rect x="920" y="1120" rx="8" ry="8" width="300" height="150" fill="#ecfccb" stroke="#312e49" stroke-width="3" /><text x="1070.0" y="1177.0" text-anchor="middle" font-size="18" fill="#0f172a" font-family="Microsoft YaHei, Arial, sans-serif">知识检索</text><text x="1070.0" y="1201.0" text-anchor="middle" font-size="18" fill="#0f172a" font-family="Microsoft YaHei, Arial, sans-serif">fashion_knowledg</text><text x="1070.0" y="1225.0" text-anchor="middle" font-size="18" fill="#0f172a" font-family="Microsoft YaHei, Arial, sans-serif">e.py</text><rect x="1330" y="1130" rx="8" ry="8" width="300" height="150" fill="#e5e7eb" stroke="none" /><rect x="1320" y="1120" rx="8" ry="8" width="300" height="150" fill="#ecfccb" stroke="#312e49" stroke-width="3" /><text x="1470.0" y="1189.0" text-anchor="middle" font-size="18" fill="#0f172a" font-family="Microsoft YaHei, Arial, sans-serif">穿搭生成</text><text x="1470.0" y="1213.0" text-anchor="middle" font-size="18" fill="#0f172a" font-family="Microsoft YaHei, Arial, sans-serif">fashion_agent.py</text><rect x="1690" y="1090" rx="8" ry="8" width="360" height="210" fill="#e5e7eb" stroke="none" /><rect x="1680" y="1080" rx="8" ry="8" width="360" height="210" fill="#dcfce7" stroke="#312e49" stroke-width="3" /><text x="1860.0" y="1143.0" text-anchor="middle" font-size="18" fill="#0f172a" font-family="Microsoft YaHei, Arial, sans-serif">运行时支撑</text><text x="1860.0" y="1167.0" text-anchor="middle" font-size="18" fill="#0f172a" font-family="Microsoft YaHei, Arial, sans-serif">llm_support / healt</text><text x="1860.0" y="1191.0" text-anchor="middle" font-size="18" fill="#0f172a" font-family="Microsoft YaHei, Arial, sans-serif">h_check /</text><text x="1860.0" y="1215.0" text-anchor="middle" font-size="18" fill="#0f172a" font-family="Microsoft YaHei, Arial, sans-serif">observability / run</text><text x="1860.0" y="1239.0" text-anchor="middle" font-size="18" fill="#0f172a" font-family="Microsoft YaHei, Arial, sans-serif">time_storage</text><rect x="190" y="1515" rx="8" ry="8" width="260" height="90" fill="#e5e7eb" stroke="none" /><rect x="180" y="1505" rx="8" ry="8" width="260" height="90" fill="#fce7f3" stroke="#312e49" stroke-width="3" /><text x="310.0" y="1556.0" text-anchor="middle" font-size="18" fill="#0f172a" font-family="Microsoft YaHei, Arial, sans-serif">OpenWeather</text><rect x="770" y="1515" rx="8" ry="8" width="260" height="90" fill="#e5e7eb" stroke="none" /><rect x="760" y="1505" rx="8" ry="8" width="260" height="90" fill="#fce7f3" stroke="#312e49" stroke-width="3" /><text x="890.0" y="1556.0" text-anchor="middle" font-size="18" fill="#0f172a" font-family="Microsoft YaHei, Arial, sans-serif">知识库 JSONL</text><rect x="1370" y="1515" rx="8" ry="8" width="340" height="90" fill="#e5e7eb" stroke="none" /><rect x="1360" y="1505" rx="8" ry="8" width="340" height="90" fill="#fce7f3" stroke="#312e49" stroke-width="3" /><text x="1530.0" y="1556.0" text-anchor="middle" font-size="18" fill="#0f172a" font-family="Microsoft YaHei, Arial, sans-serif">.runtime 日志 / 状态</text><rect x="1770" y="1515" rx="8" ry="8" width="280" height="90" fill="#e5e7eb" stroke="none" /><rect x="1760" y="1505" rx="8" ry="8" width="280" height="90" fill="#fce7f3" stroke="#312e49" stroke-width="3" /><text x="1900.0" y="1544.0" text-anchor="middle" font-size="18" fill="#0f172a" font-family="Microsoft YaHei, Arial, sans-serif">LLM / Embedding</text><text x="1900.0" y="1568.0" text-anchor="middle" font-size="18" fill="#0f172a" font-family="Microsoft YaHei, Arial, sans-serif"> 提供方</text><polyline points="400,360 400,470 880,560" fill="none" stroke="#111111" stroke-width="4" /><polygon points="880,560 866.4830414369331,563.6457963745022 868.7219157995271,551.7051331073342" fill="#111111" /><polyline points="1460,360 1460,470 1300,560" fill="none" stroke="#111111" stroke-width="4" /><polygon points="1300,560 1308.015644632497,548.5217840617315 1313.9717032667902,559.1103327449193" fill="#111111" /><polyline points="1090,630 1090,860" fill="none" stroke="#111111" stroke-width="4" /><polygon points="1090,860 1083.9256276523543,847.3864358493661 1096.0743723476457,847.3864358493661" fill="#111111" /><polyline points="900,630 320,860" fill="none" stroke="#111111" stroke-width="4" /><polygon points="320,860 329.4861206346533,849.7037135187095 333.96446039849087,860.996918140561" fill="#111111" /><polyline points="1280,630 1500,860" fill="none" stroke="#111111" stroke-width="4" /><polygon points="1500,860 1486.8916230984103,855.0836543036651 1495.6708145270293,846.6861668502036" fill="#111111" /><polyline points="300,1010 270,1120" fill="none" stroke="#111111" stroke-width="4" /><polygon points="270,1120 267.45851359937154,1106.2326165566792 279.1791829548427,1109.429162744535" fill="#111111" /><polyline points="750,1010 670,1120" fill="none" stroke="#111111" stroke-width="4" /><polygon points="670,1120 672.5063773331768,1106.2261816236842 682.331505547246,1113.3717294157345" fill="#111111" /><polyline points="770,1010 1070,1120" fill="none" stroke="#111111" stroke-width="4" /><polygon points="1070,1120 1056.066292438657,1121.3608062297674 1060.24855428145,1109.954637567605" fill="#111111" /><polyline points="1240,1010 1470,1120" fill="none" stroke="#111111" stroke-width="4" /><polygon points="1470,1120 1456.0000507808534,1120.0377075763809 1461.2416934649798,1109.0779092368437" fill="#111111" /><polyline points="270,1270 270,1505" fill="none" stroke="#111111" stroke-width="4" /><polygon points="270,1505 263.9256276523542,1492.386435849366 276.0743723476458,1492.386435849366" fill="#111111" /><polyline points="1070,1270 900,1505" fill="none" stroke="#111111" stroke-width="4" /><polygon points="900,1505 902.4714547710473,1491.2198725943963 912.3146642836244,1498.3404922417926" fill="#111111" /><polyline points="1470,1270 1470,1505" fill="none" stroke="#111111" stroke-width="4" /><polygon points="1470,1505 1463.9256276523543,1492.386435849366 1476.0743723476457,1492.386435849366" fill="#111111" /><polyline points="1860,1290 1900,1505" fill="none" stroke="#111111" stroke-width="4" /><polygon points="1900,1505 1891.7209812788444,1493.7102768406505 1903.6647772522897,1491.4881752641954" fill="#111111" /><polyline points="1830,1080 1830,1505" fill="none" stroke="#111111" stroke-width="4" /><polygon points="1830,1505 1823.9256276523543,1492.386435849366 1836.0743723476457,1492.386435849366" fill="#111111" /><polyline points="400,360 400,1120 520,1195" fill="none" stroke="#111111" stroke-width="4" stroke-dasharray="10 6" /><polygon points="520,1195 506.0843080873662,1193.465881819201 512.52312989824,1183.1637669218028" fill="#111111" />
</svg>