<svg xmlns="http://www.w3.org/2000/svg" width="2400" height="1680" viewBox="0 0 2400 1680">
<rect width="2400" height="1680" fill="#f8fafc" />
<rect x="0" y="0" width="2400" height="120" fill="#e2e8f0" />
<text x="44" y="66" font-size="38" fill="#0f172a" font-family="Microsoft YaHei, Arial, sans-serif">WeatherWear 技术架构图（V3）</text>
<text x="44" y="100" font-size="20" fill="#334155" font-family="Microsoft YaHei, Arial, sans-serif">汇报优先：一条主链展示前端、API、编排、服务组、资源与运行时支撑的协作关系</text>
<rect x="70" y="150" rx="24" ry="24" width="2260" height="150" fill="#f8fafc" stroke="#cbd5e1" stroke-width="2" /><rect x="72" y="152" rx="20" ry="20" width="2256" height="44" fill="#e2e8f0" stroke="none" /><text x="88" y="181" font-size="24" fill="#0f172a" font-family="Microsoft YaHei, Arial, sans-serif">前端体验层</text><rect x="70" y="330" rx="24" ry="24" width="2260" height="150" fill="#f8fafc" stroke="#cbd5e1" stroke-width="2" /><rect x="72" y="332" rx="20" ry="20" width="2256" height="44" fill="#e2e8f0" stroke="none" /><text x="88" y="361" font-size="24" fill="#0f172a" font-family="Microsoft YaHei, Arial, sans-serif">API 与契约层</text><rect x="70" y="510" rx="24" ry="24" width="2260" height="200" fill="#f8fafc" stroke="#cbd5e1" stroke-width="2" /><rect x="72" y="512" rx="20" ry="20" width="2256" height="44" fill="#e2e8f0" stroke="none" /><text x="88" y="541" font-size="24" fill="#0f172a" font-family="Microsoft YaHei, Arial, sans-serif">应用编排层</text><rect x="70" y="740" rx="24" ry="24" width="2260" height="250" fill="#f8fafc" stroke="#cbd5e1" stroke-width="2" /><rect x="72" y="742" rx="20" ry="20" width="2256" height="44" fill="#e2e8f0" stroke="none" /><text x="88" y="771" font-size="24" fill="#0f172a" font-family="Microsoft YaHei, Arial, sans-serif">服务执行层</text><rect x="70" y="1020" rx="24" ry="24" width="2260" height="520" fill="#f8fafc" stroke="#cbd5e1" stroke-width="2" /><rect x="72" y="1022" rx="20" ry="20" width="2256" height="44" fill="#e2e8f0" stroke="none" /><text x="88" y="1051" font-size="24" fill="#0f172a" font-family="Microsoft YaHei, Arial, sans-serif">资源 / 运行时层</text><rect x="170" y="202" rx="8" ry="8" width="430" height="88" fill="#e5e7eb" stroke="none" /><rect x="160" y="192" rx="8" ry="8" width="430" height="88" fill="#dbeafe" stroke="#2563eb" stroke-width="3" /><text x="375.0" y="218.0" text-anchor="middle" font-size="18" fill="#0f172a" font-family="Microsoft YaHei, Arial, sans-serif">主查询入口</text><text x="375.0" y="242.0" text-anchor="middle" font-size="18" fill="#0f172a" font-family="Microsoft YaHei, Arial, sans-serif">QueryWorkspace / QueryP</text><text x="375.0" y="266.0" text-anchor="middle" font-size="18" fill="#0f172a" font-family="Microsoft YaHei, Arial, sans-serif">anel</text><rect x="730" y="202" rx="8" ry="8" width="430" height="88" fill="#e5e7eb" stroke="none" /><rect x="720" y="192" rx="8" ry="8" width="430" height="88" fill="#dbeafe" stroke="#2563eb" stroke-width="3" /><text x="935.0" y="218.0" text-anchor="middle" font-size="18" fill="#0f172a" font-family="Microsoft YaHei, Arial, sans-serif">会话与路由</text><text x="935.0" y="242.0" text-anchor="middle" font-size="18" fill="#0f172a" font-family="Microsoft YaHei, Arial, sans-serif">WeatherWearSession / Ap</text><text x="935.0" y="266.0" text-anchor="middle" font-size="18" fill="#0f172a" font-family="Microsoft YaHei, Arial, sans-serif">pRouter</text><rect x="1570" y="192" rx="8" ry="8" width="560" height="108" fill="#e5e7eb" stroke="none" /><rect x="1560" y="182" rx="8" ry="8" width="560" height="108" fill="#ede9fe" stroke="#7c3aed" stroke-width="3" /><text x="1840.0" y="218.0" text-anchor="middle" font-size="18" fill="#0f172a" font-family="Microsoft YaHei, Arial, sans-serif">开发者入口</text><text x="1840.0" y="242.0" text-anchor="middle" font-size="18" fill="#0f172a" font-family="Microsoft YaHei, Arial, sans-serif">Trace / Logs / ModelConfig / Ma</text><text x="1840.0" y="266.0" text-anchor="middle" font-size="18" fill="#0f172a" font-family="Microsoft YaHei, Arial, sans-serif">pConfig</text><rect x="940" y="382" rx="8" ry="8" width="300" height="88" fill="#e5e7eb" stroke="none" /><rect x="930" y="372" rx="8" ry="8" width="300" height="88" fill="#fef3c7" stroke="#d97706" stroke-width="3" /><text x="1080.0" y="410.0" text-anchor="middle" font-size="18" fill="#0f172a" font-family="Microsoft YaHei, Arial, sans-serif">前端 API 封装</text><text x="1080.0" y="434.0" text-anchor="middle" font-size="18" fill="#0f172a" font-family="Microsoft YaHei, Arial, sans-serif">shared/api.ts</text><rect x="940" y="570" rx="8" ry="8" width="300" height="100" fill="#e5e7eb" stroke="none" /><rect x="930" y="560" rx="8" ry="8" width="300" height="100" fill="#fef3c7" stroke="#d97706" stroke-width="3" /><text x="1080.0" y="604.0" text-anchor="middle" font-size="18" fill="#0f172a" font-family="Microsoft YaHei, Arial, sans-serif">后端入口</text><text x="1080.0" y="628.0" text-anchor="middle" font-size="18" fill="#0f172a" font-family="Microsoft YaHei, Arial, sans-serif">server.py</text><rect x="580" y="825" rx="8" ry="8" width="360" height="100" fill="#e5e7eb" stroke="none" /><rect x="570" y="815" rx="8" ry="8" width="360" height="100" fill="#e0e7ff" stroke="#4f46e5" stroke-width="3" /><text x="750.0" y="847.0" text-anchor="middle" font-size="18" fill="#0f172a" font-family="Microsoft YaHei, Arial, sans-serif">查询总编排</text><text x="750.0" y="871.0" text-anchor="middle" font-size="18" fill="#0f172a" font-family="Microsoft YaHei, Arial, sans-serif">MultiAgentCoordinat</text><text x="750.0" y="895.0" text-anchor="middle" font-size="18" fill="#0f172a" font-family="Microsoft YaHei, Arial, sans-serif">or</text><rect x="1030" y="825" rx="8" ry="8" width="260" height="100" fill="#e5e7eb" stroke="none" /><rect x="1020" y="815" rx="8" ry="8" width="260" height="100" fill="#e0e7ff" stroke="#4f46e5" stroke-width="3" /><text x="1150.0" y="859.0" text-anchor="middle" font-size="18" fill="#0f172a" font-family="Microsoft YaHei, Arial, sans-serif">工作流执行</text><text x="1150.0" y="883.0" text-anchor="middle" font-size="18" fill="#0f172a" font-family="Microsoft YaHei, Arial, sans-serif">workflow.py</text><rect x="1390" y="825" rx="8" ry="8" width="300" height="100" fill="#e5e7eb" stroke="none" /><rect x="1380" y="815" rx="8" ry="8" width="300" height="100" fill="#e0e7ff" stroke="#4f46e5" stroke-width="3" /><text x="1530.0" y="859.0" text-anchor="middle" font-size="18" fill="#0f172a" font-family="Microsoft YaHei, Arial, sans-serif">结果表示层</text><text x="1530.0" y="883.0" text-anchor="middle" font-size="18" fill="#0f172a" font-family="Microsoft YaHei, Arial, sans-serif">presentation.py</text><rect x="360" y="1120" rx="8" ry="8" width="500" height="118" fill="#e5e7eb" stroke="none" /><rect x="350" y="1110" rx="8" ry="8" width="500" height="118" fill="#dcfce7" stroke="#16a34a" stroke-width="3" /><text x="600.0" y="1151.0" text-anchor="middle" font-size="18" fill="#0f172a" font-family="Microsoft YaHei, Arial, sans-serif">解析与天气服务</text><text x="600.0" y="1175.0" text-anchor="middle" font-size="18" fill="#0f172a" font-family="Microsoft YaHei, Arial, sans-serif">city_resolver.py + weather_s</text><text x="600.0" y="1199.0" text-anchor="middle" font-size="18" fill="#0f172a" font-family="Microsoft YaHei, Arial, sans-serif">ervice.py</text><rect x="990" y="1120" rx="8" ry="8" width="500" height="118" fill="#e5e7eb" stroke="none" /><rect x="980" y="1110" rx="8" ry="8" width="500" height="118" fill="#dcfce7" stroke="#16a34a" stroke-width="3" /><text x="1230.0" y="1151.0" text-anchor="middle" font-size="18" fill="#0f172a" font-family="Microsoft YaHei, Arial, sans-serif">知识与穿搭服务</text><text x="1230.0" y="1175.0" text-anchor="middle" font-size="18" fill="#0f172a" font-family="Microsoft YaHei, Arial, sans-serif">fashion_knowledge.py + fashi</text><text x="1230.0" y="1199.0" text-anchor="middle" font-size="18" fill="#0f172a" font-family="Microsoft YaHei, Arial, sans-serif">on_agent.py</text><rect x="1670" y="1098" rx="8" ry="8" width="470" height="162" fill="#e5e7eb" stroke="none" /><rect x="1660" y="1088" rx="8" ry="8" width="470" height="162" fill="#dcfce7" stroke="#16a34a" stroke-width="3" /><text x="1895.0" y="1127.0" text-anchor="middle" font-size="18" fill="#0f172a" font-family="Microsoft YaHei, Arial, sans-serif">运行时支撑</text><text x="1895.0" y="1151.0" text-anchor="middle" font-size="18" fill="#0f172a" font-family="Microsoft YaHei, Arial, sans-serif">health_check / llm_support</text><text x="1895.0" y="1175.0" text-anchor="middle" font-size="18" fill="#0f172a" font-family="Microsoft YaHei, Arial, sans-serif"> /</text><text x="1895.0" y="1199.0" text-anchor="middle" font-size="18" fill="#0f172a" font-family="Microsoft YaHei, Arial, sans-serif">map_support / observabilit</text><text x="1895.0" y="1223.0" text-anchor="middle" font-size="18" fill="#0f172a" font-family="Microsoft YaHei, Arial, sans-serif">y</text><rect x="240" y="1378" rx="8" ry="8" width="270" height="88" fill="#e5e7eb" stroke="none" /><rect x="230" y="1368" rx="8" ry="8" width="270" height="88" fill="#fff7ed" stroke="#ea580c" stroke-width="3" /><text x="365.0" y="1418.0" text-anchor="middle" font-size="18" fill="#0f172a" font-family="Microsoft YaHei, Arial, sans-serif">OpenWeather</text><rect x="600" y="1378" rx="8" ry="8" width="420" height="88" fill="#e5e7eb" stroke="none" /><rect x="590" y="1368" rx="8" ry="8" width="420" height="88" fill="#fff7ed" stroke="#ea580c" stroke-width="3" /><text x="800.0" y="1406.0" text-anchor="middle" font-size="18" fill="#0f172a" font-family="Microsoft YaHei, Arial, sans-serif">resources/fashion_knowl</text><text x="800.0" y="1430.0" text-anchor="middle" font-size="18" fill="#0f172a" font-family="Microsoft YaHei, Arial, sans-serif">edge/*.jsonl</text><rect x="1130" y="1368" rx="8" ry="8" width="440" height="108" fill="#e5e7eb" stroke="none" /><rect x="1120" y="1358" rx="8" ry="8" width="440" height="108" fill="#fff7ed" stroke="#ea580c" stroke-width="3" /><text x="1340.0" y="1394.0" text-anchor="middle" font-size="18" fill="#0f172a" font-family="Microsoft YaHei, Arial, sans-serif">状态持久化</text><text x="1340.0" y="1418.0" text-anchor="middle" font-size="18" fill="#0f172a" font-family="Microsoft YaHei, Arial, sans-serif">user_state_store.py + ru</text><text x="1340.0" y="1442.0" text-anchor="middle" font-size="18" fill="#0f172a" font-family="Microsoft YaHei, Arial, sans-serif">ntime_storage.py</text><rect x="1690" y="1358" rx="8" ry="8" width="520" height="128" fill="#e5e7eb" stroke="none" /><rect x="1680" y="1348" rx="8" ry="8" width="520" height="128" fill="#fff7ed" stroke="#ea580c" stroke-width="3" /><text x="1940.0" y="1382.0" text-anchor="middle" font-size="18" fill="#0f172a" font-family="Microsoft YaHei, Arial, sans-serif">.runtime/state / .runtime/log</text><text x="1940.0" y="1406.0" text-anchor="middle" font-size="18" fill="#0f172a" font-family="Microsoft YaHei, Arial, sans-serif">s</text><text x="1940.0" y="1430.0" text-anchor="middle" font-size="18" fill="#0f172a" font-family="Microsoft YaHei, Arial, sans-serif">history.json / favorites.json</text><text x="1940.0" y="1454.0" text-anchor="middle" font-size="18" fill="#0f172a" font-family="Microsoft YaHei, Arial, sans-serif"> / app.events.jsonl</text><polyline points="590,236 720,236" fill="none" stroke="#2563eb" stroke-width="4" /><polygon points="720,236 707.3864358493661,242.0743723476458 707.3864358493661,229.9256276523542" fill="#2563eb" /><polyline points="935.0,280 1080.0,372" fill="none" stroke="#2563eb" stroke-width="4" /><polygon points="1080.0,372 1066.0950454848794,370.3714300959349 1072.603669886911,360.11327207099407" fill="#2563eb" /><polyline points="1080.0,460 1080.0,560" fill="none" stroke="#d97706" stroke-width="4" /><polygon points="1080.0,560 1073.9256276523543,547.3864358493661 1086.0743723476457,547.3864358493661" fill="#d97706" /><polyline points="1080.0,660 1150.0,815" fill="none" stroke="#4f46e5" stroke-width="4" /><polygon points="1150.0,815 1139.2724201041,806.0044994815694 1150.3444288421483,801.004237470838" fill="#4f46e5" /><polyline points="950,610 750.0,815" fill="none" stroke="#4f46e5" stroke-width="4" /><polygon points="750.0,815 754.4604266319034,801.7295593795304 763.1562787802364,810.2133175730262" fill="#4f46e5" /><polyline points="930,865 1380,865" fill="none" stroke="#4f46e5" stroke-width="4" /><polygon points="1380,865 1367.386435849366,871.0743723476459 1367.386435849366,858.9256276523541" fill="#4f46e5" /><polyline points="1060,915 600,1110" fill="none" stroke="#16a34a" stroke-width="4" /><polygon points="600,1110 609.2424082105379,1099.4843977600053 613.983976152225,1110.6696349557799" fill="#16a34a" /><polyline points="1240,915 1230,1110" fill="none" stroke="#16a34a" stroke-width="4" /><polygon points="1230,1110 1224.579599832515,1097.091891617114 1236.7124012864294,1097.7140865634688" fill="#16a34a" /><polyline points="1440,915 935,280" fill="none" stroke="#4f46e5" stroke-width="4" /><polygon points="935,280 947.6053835218229,286.09133041853386 938.0969341830498,293.6531680816526" fill="#4f46e5" /><polyline points="430,1228 360,1368" fill="none" stroke="#ea580c" stroke-width="4" /><polygon points="360,1368 360.20787357988195,1354.0015433502551 371.0740411718668,1359.4346271462475" fill="#ea580c" /><polyline points="1140,1228 800,1368" fill="none" stroke="#ea580c" stroke-width="4" /><polygon points="800,1368 809.3506704253888,1357.580548834235 813.9763026022052,1368.814226977932" fill="#ea580c" /><polyline points="1400,1228 1780,1168" fill="none" stroke="#16a34a" stroke-width="4" stroke-dasharray="10 6" /><polygon points="1780,1168 1768.4881632147735,1175.9672839682232 1766.5934137276292,1163.9672038829763" fill="#16a34a" /><polyline points="1740,290 2000,1088" fill="none" stroke="#7c3aed" stroke-width="4" stroke-dasharray="10 6" /><polygon points="2000,1088 1990.31693791169,1077.8887039112715 2001.8680391478977,1074.1251872177704" fill="#7c3aed" /><polyline points="1230,610 1240,1358" fill="none" stroke="#ea580c" stroke-width="4" /><polygon points="1240,1358 1233.7575549459227,1345.4687638380394 1245.905214115782,1345.3063619774798" fill="#ea580c" /><polyline points="1860,1250 1880,1348" fill="none" stroke="#ea580c" stroke-width="4" /><polygon points="1880,1348 1871.52609688036,1336.8558102170252 1883.4294862418938,1334.4265470820185" fill="#ea580c" /><polyline points="1440,1412 1680,1412" fill="none" stroke="#ea580c" stroke-width="4" /><polygon points="1680,1412 1667.386435849366,1418.0743723476457 1667.386435849366,1405.9256276523543" fill="#ea580c" /><text x="170" y="1550" font-size="18" fill="#0f172a" font-family="Microsoft YaHei, Arial, sans-serif">主调用链：实线</text><line x1="300" y1="1542" x2="390" y2="1542" stroke="#111827" stroke-width="4" /><text x="460" y="1550" font-size="18" fill="#0f172a" font-family="Microsoft YaHei, Arial, sans-serif">支撑依赖：虚线</text><line x1="610" y1="1542" x2="700" y2="1542" stroke="#16a34a" stroke-width="4" stroke-dasharray="10 6" /><text x="770" y="1550" font-size="18" fill="#0f172a" font-family="Microsoft YaHei, Arial, sans-serif">资源/落盘：橙色</text><line x1="955" y1="1542" x2="1045" y2="1542" stroke="#ea580c" stroke-width="4" />
</svg>