<svg xmlns="http://www.w3.org/2000/svg" width="2200" height="1300" viewBox="0 0 2200 1300">
<rect width="2200" height="1300" fill="#f8fafc" />
<rect x="0" y="0" width="2200" height="120" fill="#e2e8f0" />
<text x="44" y="66" font-size="38" fill="#0f172a" font-family="Microsoft YaHei, Arial, sans-serif">WeatherWear 数据流转过程图（V2）</text>
<text x="44" y="100" font-size="20" fill="#334155" font-family="Microsoft YaHei, Arial, sans-serif">按输入、编排、领域服务、结果模型、持久化五段展示 QueryRequest 到 view_model 的变换过程</text>
<rect x="80" y="430" rx="8" ry="8" width="340" height="140" fill="#e5e7eb" stroke="none" /><rect x="70" y="420" rx="8" ry="8" width="340" height="140" fill="#dbeafe" stroke="#312e49" stroke-width="3" /><text x="240.0" y="448.0" text-anchor="middle" font-size="18" fill="#0f172a" font-family="Microsoft YaHei, Arial, sans-serif">用户输入</text><text x="240.0" y="472.0" text-anchor="middle" font-size="18" fill="#0f172a" font-family="Microsoft YaHei, Arial, sans-serif">query_text / selec</text><text x="240.0" y="496.0" text-anchor="middle" font-size="18" fill="#0f172a" font-family="Microsoft YaHei, Arial, sans-serif">ted_coords /</text><text x="240.0" y="520.0" text-anchor="middle" font-size="18" fill="#0f172a" font-family="Microsoft YaHei, Arial, sans-serif">locale / confirmat</text><text x="240.0" y="544.0" text-anchor="middle" font-size="18" fill="#0f172a" font-family="Microsoft YaHei, Arial, sans-serif">ion_mode</text><rect x="500" y="430" rx="8" ry="8" width="280" height="140" fill="#e5e7eb" stroke="none" /><rect x="490" y="420" rx="8" ry="8" width="280" height="140" fill="#fef3c7" stroke="#312e49" stroke-width="3" /><text x="630.0" y="484.0" text-anchor="middle" font-size="18" fill="#0f172a" font-family="Microsoft YaHei, Arial, sans-serif">QueryRequest</text><text x="630.0" y="508.0" text-anchor="middle" font-size="18" fill="#0f172a" font-family="Microsoft YaHei, Arial, sans-serif">前后端请求契约</text><rect x="860" y="430" rx="8" ry="8" width="330" height="140" fill="#e5e7eb" stroke="none" /><rect x="850" y="420" rx="8" ry="8" width="330" height="140" fill="#f3e8ff" stroke="#312e49" stroke-width="3" /><text x="1015.0" y="460.0" text-anchor="middle" font-size="18" fill="#0f172a" font-family="Microsoft YaHei, Arial, sans-serif">QueryState / Query</text><text x="1015.0" y="484.0" text-anchor="middle" font-size="18" fill="#0f172a" font-family="Microsoft YaHei, Arial, sans-serif">Plan</text><text x="1015.0" y="508.0" text-anchor="middle" font-size="18" fill="#0f172a" font-family="Microsoft YaHei, Arial, sans-serif">coordinator + work</text><text x="1015.0" y="532.0" text-anchor="middle" font-size="18" fill="#0f172a" font-family="Microsoft YaHei, Arial, sans-serif">flow</text><rect x="1270" y="370" rx="8" ry="8" width="380" height="260" fill="#e5e7eb" stroke="none" /><rect x="1260" y="360" rx="8" ry="8" width="380" height="260" fill="#dcfce7" stroke="#312e49" stroke-width="3" /><text x="1450.0" y="448.0" text-anchor="middle" font-size="18" fill="#0f172a" font-family="Microsoft YaHei, Arial, sans-serif">领域服务阶段</text><text x="1450.0" y="472.0" text-anchor="middle" font-size="18" fill="#0f172a" font-family="Microsoft YaHei, Arial, sans-serif">CityResolutionResult</text><text x="1450.0" y="496.0" text-anchor="middle" font-size="18" fill="#0f172a" font-family="Microsoft YaHei, Arial, sans-serif">WeatherResult</text><text x="1450.0" y="520.0" text-anchor="middle" font-size="18" fill="#0f172a" font-family="Microsoft YaHei, Arial, sans-serif">KnowledgeHit[]</text><text x="1450.0" y="544.0" text-anchor="middle" font-size="18" fill="#0f172a" font-family="Microsoft YaHei, Arial, sans-serif">FashionAdviceResult</text><rect x="1740" y="430" rx="8" ry="8" width="320" height="140" fill="#e5e7eb" stroke="none" /><rect x="1730" y="420" rx="8" ry="8" width="320" height="140" fill="#dbeafe" stroke="#312e49" stroke-width="3" /><text x="1890.0" y="472.0" text-anchor="middle" font-size="18" fill="#0f172a" font-family="Microsoft YaHei, Arial, sans-serif">CoordinatorResult</text><text x="1890.0" y="496.0" text-anchor="middle" font-size="18" fill="#0f172a" font-family="Microsoft YaHei, Arial, sans-serif">presentation -&gt; v</text><text x="1890.0" y="520.0" text-anchor="middle" font-size="18" fill="#0f172a" font-family="Microsoft YaHei, Arial, sans-serif">iew_model</text><rect x="240" y="910" rx="8" ry="8" width="220" height="90" fill="#e5e7eb" stroke="none" /><rect x="230" y="900" rx="8" ry="8" width="220" height="90" fill="#fce7f3" stroke="#312e49" stroke-width="3" /><text x="340.0" y="951.0" text-anchor="middle" font-size="18" fill="#0f172a" font-family="Microsoft YaHei, Arial, sans-serif">OpenWeather</text><rect x="770" y="910" rx="8" ry="8" width="220" height="90" fill="#e5e7eb" stroke="none" /><rect x="760" y="900" rx="8" ry="8" width="220" height="90" fill="#fce7f3" stroke="#312e49" stroke-width="3" /><text x="870.0" y="951.0" text-anchor="middle" font-size="18" fill="#0f172a" font-family="Microsoft YaHei, Arial, sans-serif">知识库 JSONL</text><rect x="1250" y="910" rx="8" ry="8" width="240" height="90" fill="#e5e7eb" stroke="none" /><rect x="1240" y="900" rx="8" ry="8" width="240" height="90" fill="#fce7f3" stroke="#312e49" stroke-width="3" /><text x="1360.0" y="939.0" text-anchor="middle" font-size="18" fill="#0f172a" font-family="Microsoft YaHei, Arial, sans-serif">LLM / Embedd</text><text x="1360.0" y="963.0" text-anchor="middle" font-size="18" fill="#0f172a" font-family="Microsoft YaHei, Arial, sans-serif">ing</text><rect x="1760" y="890" rx="8" ry="8" width="300" height="120" fill="#e5e7eb" stroke="none" /><rect x="1750" y="880" rx="8" ry="8" width="300" height="120" fill="#fce7f3" stroke="#312e49" stroke-width="3" /><text x="1900.0" y="922.0" text-anchor="middle" font-size="18" fill="#0f172a" font-family="Microsoft YaHei, Arial, sans-serif">history.json /</text><text x="1900.0" y="946.0" text-anchor="middle" font-size="18" fill="#0f172a" font-family="Microsoft YaHei, Arial, sans-serif">favorites.json /</text><text x="1900.0" y="970.0" text-anchor="middle" font-size="18" fill="#0f172a" font-family="Microsoft YaHei, Arial, sans-serif">app.events.jsonl</text><polyline points="410,490 490,490" fill="none" stroke="#111111" stroke-width="4" /><polygon points="490,490 477.38643584936614,496.0743723476458 477.38643584936614,483.9256276523542" fill="#111111" /><text x="450.0" y="482.0" font-size="16" fill="#334155" font-family="Microsoft YaHei, Arial, sans-serif">构造请求</text><polyline points="770,490 850,490" fill="none" stroke="#111111" stroke-width="4" /><polygon points="850,490 837.3864358493661,496.0743723476458 837.3864358493661,483.9256276523542" fill="#111111" /><text x="810.0" y="482.0" font-size="16" fill="#334155" font-family="Microsoft YaHei, Arial, sans-serif">进入编排</text><polyline points="1180,490 1260,490" fill="none" stroke="#111111" stroke-width="4" /><polygon points="1260,490 1247.386435849366,496.0743723476458 1247.386435849366,483.9256276523542" fill="#111111" /><text x="1220.0" y="482.0" font-size="16" fill="#334155" font-family="Microsoft YaHei, Arial, sans-serif">驱动服务执行</text><polyline points="1640,490 1730,490" fill="none" stroke="#111111" stroke-width="4" /><polygon points="1730,490 1717.386435849366,496.0743723476458 1717.386435849366,483.9256276523542" fill="#111111" /><text x="1685.0" y="482.0" font-size="16" fill="#334155" font-family="Microsoft YaHei, Arial, sans-serif">汇总结果</text><polyline points="1450,620 1450,900" fill="none" stroke="#111111" stroke-width="4" /><polygon points="1450,900 1443.9256276523543,887.3864358493661 1456.0743723476457,887.3864358493661" fill="#111111" /><text x="1450.0" y="752.0" font-size="16" fill="#334155" font-family="Microsoft YaHei, Arial, sans-serif">调用模型 / 检索</text><polyline points="980,560 870,900" fill="none" stroke="#111111" stroke-width="4" /><polygon points="870,900 868.1032826431182,886.1290784996777 879.6621391907704,889.8687085592122" fill="#111111" /><text x="925.0" y="722.0" font-size="16" fill="#334155" font-family="Microsoft YaHei, Arial, sans-serif">读取知识条件</text><polyline points="1380,620 340,900" fill="none" stroke="#111111" stroke-width="4" /><polygon points="340,900 350.60068063673026,890.8552982531932 353.75903199319663,902.5863175772112" fill="#111111" /><text x="860.0" y="752.0" font-size="16" fill="#334155" font-family="Microsoft YaHei, Arial, sans-serif">天气数据查询</text><polyline points="1890,560 1890,880" fill="none" stroke="#111111" stroke-width="4" /><polygon points="1890,880 1883.9256276523543,867.3864358493661 1896.0743723476457,867.3864358493661" fill="#111111" /><text x="1890.0" y="712.0" font-size="16" fill="#334155" font-family="Microsoft YaHei, Arial, sans-serif">持久化 / 观测</text>
</svg>