<svg xmlns="http://www.w3.org/2000/svg" width="2320" height="1460" viewBox="0 0 2320 1460">
<rect width="2320" height="1460" fill="#f8fafc" />
<rect x="0" y="0" width="2320" height="120" fill="#e2e8f0" />
<text x="44" y="66" font-size="38" fill="#0f172a" font-family="Microsoft YaHei, Arial, sans-serif">WeatherWear 数据流转过程图（V3）</text>
<text x="44" y="100" font-size="20" fill="#334155" font-family="Microsoft YaHei, Arial, sans-serif">对象变形优先：保持一条主链，把外部依赖统一放入数据源池，把消费端收拢到结果下游</text>
<rect x="100" y="320" rx="8" ry="8" width="320" height="140" fill="#e5e7eb" stroke="none" /><rect x="90" y="310" rx="8" ry="8" width="320" height="140" fill="#dbeafe" stroke="#2563eb" stroke-width="3" /><text x="250.0" y="338.0" text-anchor="middle" font-size="18" fill="#0f172a" font-family="Microsoft YaHei, Arial, sans-serif">输入采集</text><text x="250.0" y="362.0" text-anchor="middle" font-size="18" fill="#0f172a" font-family="Microsoft YaHei, Arial, sans-serif">query_text / sele</text><text x="250.0" y="386.0" text-anchor="middle" font-size="18" fill="#0f172a" font-family="Microsoft YaHei, Arial, sans-serif">cted_coords /</text><text x="250.0" y="410.0" text-anchor="middle" font-size="18" fill="#0f172a" font-family="Microsoft YaHei, Arial, sans-serif">confirmation_mode</text><text x="250.0" y="434.0" text-anchor="middle" font-size="18" fill="#0f172a" font-family="Microsoft YaHei, Arial, sans-serif"> / locale</text><rect x="500" y="336" rx="8" ry="8" width="260" height="108" fill="#e5e7eb" stroke="none" /><rect x="490" y="326" rx="8" ry="8" width="260" height="108" fill="#fef3c7" stroke="#d97706" stroke-width="3" /><text x="620.0" y="374.0" text-anchor="middle" font-size="18" fill="#0f172a" font-family="Microsoft YaHei, Arial, sans-serif">请求载荷</text><text x="620.0" y="398.0" text-anchor="middle" font-size="18" fill="#0f172a" font-family="Microsoft YaHei, Arial, sans-serif">QueryRequest</text><rect x="840" y="326" rx="8" ry="8" width="300" height="128" fill="#e5e7eb" stroke="none" /><rect x="830" y="316" rx="8" ry="8" width="300" height="128" fill="#e0e7ff" stroke="#4f46e5" stroke-width="3" /><text x="980.0" y="362.0" text-anchor="middle" font-size="18" fill="#0f172a" font-family="Microsoft YaHei, Arial, sans-serif">编排状态</text><text x="980.0" y="386.0" text-anchor="middle" font-size="18" fill="#0f172a" font-family="Microsoft YaHei, Arial, sans-serif">QueryState / Que</text><text x="980.0" y="410.0" text-anchor="middle" font-size="18" fill="#0f172a" font-family="Microsoft YaHei, Arial, sans-serif">ryPlan</text><rect x="1220" y="276" rx="8" ry="8" width="360" height="228" fill="#e5e7eb" stroke="none" /><rect x="1210" y="266" rx="8" ry="8" width="360" height="228" fill="#dcfce7" stroke="#16a34a" stroke-width="3" /><text x="1390.0" y="326.0" text-anchor="middle" font-size="18" fill="#0f172a" font-family="Microsoft YaHei, Arial, sans-serif">领域结果</text><text x="1390.0" y="350.0" text-anchor="middle" font-size="18" fill="#0f172a" font-family="Microsoft YaHei, Arial, sans-serif">CityResolutionResul</text><text x="1390.0" y="374.0" text-anchor="middle" font-size="18" fill="#0f172a" font-family="Microsoft YaHei, Arial, sans-serif">t</text><text x="1390.0" y="398.0" text-anchor="middle" font-size="18" fill="#0f172a" font-family="Microsoft YaHei, Arial, sans-serif">WeatherResult</text><text x="1390.0" y="422.0" text-anchor="middle" font-size="18" fill="#0f172a" font-family="Microsoft YaHei, Arial, sans-serif">KnowledgeHit[]</text><text x="1390.0" y="446.0" text-anchor="middle" font-size="18" fill="#0f172a" font-family="Microsoft YaHei, Arial, sans-serif">FashionAdviceResult</text><rect x="1660" y="336" rx="8" ry="8" width="360" height="108" fill="#e5e7eb" stroke="none" /><rect x="1650" y="326" rx="8" ry="8" width="360" height="108" fill="#dbeafe" stroke="#2563eb" stroke-width="3" /><text x="1830.0" y="362.0" text-anchor="middle" font-size="18" fill="#0f172a" font-family="Microsoft YaHei, Arial, sans-serif">结果模型</text><text x="1830.0" y="386.0" text-anchor="middle" font-size="18" fill="#0f172a" font-family="Microsoft YaHei, Arial, sans-serif">CoordinatorResult -</text><text x="1830.0" y="410.0" text-anchor="middle" font-size="18" fill="#0f172a" font-family="Microsoft YaHei, Arial, sans-serif">&gt; view_model</text><rect x="230" y="770" rx="8" ry="8" width="250" height="88" fill="#e5e7eb" stroke="none" /><rect x="220" y="760" rx="8" ry="8" width="250" height="88" fill="#fff7ed" stroke="#ea580c" stroke-width="3" /><text x="345.0" y="798.0" text-anchor="middle" font-size="18" fill="#0f172a" font-family="Microsoft YaHei, Arial, sans-serif">OpenWeather A</text><text x="345.0" y="822.0" text-anchor="middle" font-size="18" fill="#0f172a" font-family="Microsoft YaHei, Arial, sans-serif">PI</text><rect x="650" y="770" rx="8" ry="8" width="340" height="88" fill="#e5e7eb" stroke="none" /><rect x="640" y="760" rx="8" ry="8" width="340" height="88" fill="#fff7ed" stroke="#ea580c" stroke-width="3" /><text x="810.0" y="798.0" text-anchor="middle" font-size="18" fill="#0f172a" font-family="Microsoft YaHei, Arial, sans-serif">resources/fashion_</text><text x="810.0" y="822.0" text-anchor="middle" font-size="18" fill="#0f172a" font-family="Microsoft YaHei, Arial, sans-serif">knowledge/*.jsonl</text><rect x="1130" y="770" rx="8" ry="8" width="300" height="88" fill="#e5e7eb" stroke="none" /><rect x="1120" y="760" rx="8" ry="8" width="300" height="88" fill="#fff7ed" stroke="#ea580c" stroke-width="3" /><text x="1270.0" y="798.0" text-anchor="middle" font-size="18" fill="#0f172a" font-family="Microsoft YaHei, Arial, sans-serif">LLM config / Emb</text><text x="1270.0" y="822.0" text-anchor="middle" font-size="18" fill="#0f172a" font-family="Microsoft YaHei, Arial, sans-serif">edding</text><rect x="1500" y="770" rx="8" ry="8" width="220" height="88" fill="#e5e7eb" stroke="none" /><rect x="1490" y="760" rx="8" ry="8" width="220" height="88" fill="#fff7ed" stroke="#ea580c" stroke-width="3" /><text x="1600.0" y="810.0" text-anchor="middle" font-size="18" fill="#0f172a" font-family="Microsoft YaHei, Arial, sans-serif">Map config</text><rect x="1510" y="1050" rx="8" ry="8" width="260" height="110" fill="#e5e7eb" stroke="none" /><rect x="1500" y="1040" rx="8" ry="8" width="260" height="110" fill="#ecfccb" stroke="#65a30d" stroke-width="3" /><text x="1630.0" y="1077.0" text-anchor="middle" font-size="18" fill="#0f172a" font-family="Microsoft YaHei, Arial, sans-serif">UI 渲染</text><text x="1630.0" y="1101.0" text-anchor="middle" font-size="18" fill="#0f172a" font-family="Microsoft YaHei, Arial, sans-serif">结果页 / 候选确认 / </text><text x="1630.0" y="1125.0" text-anchor="middle" font-size="18" fill="#0f172a" font-family="Microsoft YaHei, Arial, sans-serif">提示</text><rect x="1820" y="1036" rx="8" ry="8" width="380" height="138" fill="#e5e7eb" stroke="none" /><rect x="1810" y="1026" rx="8" ry="8" width="380" height="138" fill="#ecfccb" stroke="#65a30d" stroke-width="3" /><text x="2000.0" y="1077.0" text-anchor="middle" font-size="18" fill="#0f172a" font-family="Microsoft YaHei, Arial, sans-serif">调试面板</text><text x="2000.0" y="1101.0" text-anchor="middle" font-size="18" fill="#0f172a" font-family="Microsoft YaHei, Arial, sans-serif">Trace / Logs / Model</text><text x="2000.0" y="1125.0" text-anchor="middle" font-size="18" fill="#0f172a" font-family="Microsoft YaHei, Arial, sans-serif">Config / MapConfig</text><rect x="1500" y="1250" rx="8" ry="8" width="220" height="88" fill="#e5e7eb" stroke="none" /><rect x="1490" y="1240" rx="8" ry="8" width="220" height="88" fill="#fff7ed" stroke="#ea580c" stroke-width="3" /><text x="1600.0" y="1278.0" text-anchor="middle" font-size="18" fill="#0f172a" font-family="Microsoft YaHei, Arial, sans-serif">history.jso</text><text x="1600.0" y="1302.0" text-anchor="middle" font-size="18" fill="#0f172a" font-family="Microsoft YaHei, Arial, sans-serif">n</text><rect x="1770" y="1250" rx="8" ry="8" width="220" height="88" fill="#e5e7eb" stroke="none" /><rect x="1760" y="1240" rx="8" ry="8" width="220" height="88" fill="#fff7ed" stroke="#ea580c" stroke-width="3" /><text x="1870.0" y="1278.0" text-anchor="middle" font-size="18" fill="#0f172a" font-family="Microsoft YaHei, Arial, sans-serif">favorites.j</text><text x="1870.0" y="1302.0" text-anchor="middle" font-size="18" fill="#0f172a" font-family="Microsoft YaHei, Arial, sans-serif">son</text><rect x="2040" y="1250" rx="8" ry="8" width="220" height="88" fill="#e5e7eb" stroke="none" /><rect x="2030" y="1240" rx="8" ry="8" width="220" height="88" fill="#fff7ed" stroke="#ea580c" stroke-width="3" /><text x="2140.0" y="1278.0" text-anchor="middle" font-size="18" fill="#0f172a" font-family="Microsoft YaHei, Arial, sans-serif">app.events.</text><text x="2140.0" y="1302.0" text-anchor="middle" font-size="18" fill="#0f172a" font-family="Microsoft YaHei, Arial, sans-serif">jsonl</text><polyline points="410,380 490,380" fill="none" stroke="#111827" stroke-width="4" /><polygon points="490,380 477.38643584936614,386.0743723476458 477.38643584936614,373.9256276523542" fill="#111827" /><polyline points="750,380 830,380" fill="none" stroke="#111827" stroke-width="4" /><polygon points="830,380 817.3864358493661,386.0743723476458 817.3864358493661,373.9256276523542" fill="#111827" /><polyline points="1130,380 1210,380" fill="none" stroke="#111827" stroke-width="4" /><polygon points="1210,380 1197.386435849366,386.0743723476458 1197.386435849366,373.9256276523542" fill="#111827" /><polyline points="1570,380 1650,380" fill="none" stroke="#111827" stroke-width="4" /><polygon points="1650,380 1637.386435849366,386.0743723476458 1637.386435849366,373.9256276523542" fill="#111827" /><polyline points="980,444 345,760" fill="none" stroke="#ea580c" stroke-width="4" stroke-dasharray="10 6" /><polygon points="345,760 353.5863046074643,748.9421804505663 358.99882480960434,759.8186055403098" fill="#ea580c" /><polyline points="1190,420 810,760" fill="none" stroke="#ea580c" stroke-width="4" stroke-dasharray="10 6" /><polygon points="810,760 815.3497888599356,747.0624670375644 823.4505093717673,756.1162134919646" fill="#ea580c" /><polyline points="1390,494 1270,760" fill="none" stroke="#ea580c" stroke-width="4" stroke-dasharray="10 6" /><polygon points="1270,760 1269.649931144959,746.0043774058911 1280.7239539997488,751.0001771900069" fill="#ea580c" /><polyline points="1930,434 1600,760" fill="none" stroke="#ea580c" stroke-width="4" stroke-dasharray="10 6" /><polygon points="1600,760 1604.7043948191438,746.814073055503 1613.2423150043844,755.4567529976177" fill="#ea580c" /><polyline points="1830,434 1630,1040" fill="none" stroke="#65a30d" stroke-width="4" /><polygon points="1630,1040 1628.184821764138,1026.1181727437613 1639.7215044644943,1029.9256587834827" fill="#65a30d" /><polyline points="1900,434 1960,1026" fill="none" stroke="#65a30d" stroke-width="4" /><polygon points="1960,1026 1952.6847016128177,1014.0632328703921 1964.7715263988553,1012.8382168447802" fill="#65a30d" /><polyline points="1720,434 1600,1240" fill="none" stroke="#ea580c" stroke-width="4" /><polygon points="1600,1240 1595.8493279477163,1226.6294382498568 1607.8656244190859,1228.4184650197878" fill="#ea580c" /><polyline points="1820,434 1870,1240" fill="none" stroke="#ea580c" stroke-width="4" /><polygon points="1870,1240 1863.1563041698355,1227.7867355967296 1875.281740057052,1227.034537340699" fill="#ea580c" /><polyline points="1080,444 2140,1240" fill="none" stroke="#ea580c" stroke-width="4" stroke-dasharray="10 6" /><polygon points="2140,1240 2126.2661624373504,1237.2830705193626 2133.5612733429116,1227.5684755948719" fill="#ea580c" /><polyline points="1970,410 2140,1240" fill="none" stroke="#ea580c" stroke-width="4" /><polygon points="2140,1240 2131.518208383529,1228.8618129403949 2143.4198747264563,1226.4241222436506" fill="#ea580c" /><text x="520" y="352" font-size="16" fill="#334155" font-family="Microsoft YaHei, Arial, sans-serif">构造 QueryRequest</text><text x="870" y="352" font-size="16" fill="#334155" font-family="Microsoft YaHei, Arial, sans-serif">进入编排</text><text x="1245" y="352" font-size="16" fill="#334155" font-family="Microsoft YaHei, Arial, sans-serif">计算领域结果</text><text x="1710" y="352" font-size="16" fill="#334155" font-family="Microsoft YaHei, Arial, sans-serif">聚合为 view_model</text><text x="370" y="732" font-size="16" fill="#334155" font-family="Microsoft YaHei, Arial, sans-serif">天气数据</text><text x="770" y="732" font-size="16" fill="#334155" font-family="Microsoft YaHei, Arial, sans-serif">知识库命中</text><text x="1180" y="732" font-size="16" fill="#334155" font-family="Microsoft YaHei, Arial, sans-serif">模型/检索配置</text><text x="1545" y="732" font-size="16" fill="#334155" font-family="Microsoft YaHei, Arial, sans-serif">地图配置</text><text x="1600" y="994" font-size="16" fill="#334155" font-family="Microsoft YaHei, Arial, sans-serif">页面消费</text><text x="1860" y="994" font-size="16" fill="#334155" font-family="Microsoft YaHei, Arial, sans-serif">调试消费</text><text x="120" y="640" font-size="22" fill="#0f172a" font-family="Microsoft YaHei, Arial, sans-serif">数据源池</text><text x="1460" y="950" font-size="22" fill="#0f172a" font-family="Microsoft YaHei, Arial, sans-serif">结果消费与持久化</text>
</svg>