<svg xmlns="http://www.w3.org/2000/svg" width="2400" height="1180" viewBox="0 0 2400 1180">
<rect width="2400" height="1180" fill="#f8fafc" />
<rect x="0" y="0" width="2400" height="120" fill="#e2e8f0" />
<text x="44" y="66" font-size="38" fill="#0f172a" font-family="Microsoft YaHei, Arial, sans-serif">WeatherWear 数据流转过程图</text>
<text x="44" y="100" font-size="20" fill="#334155" font-family="Microsoft YaHei, Arial, sans-serif">输入对象 -&gt; 请求载荷 -&gt; 领域结果 -&gt; 结果模型 -&gt; 持久化 / 观测</text>
<rect x="36" y="150" rx="24" ry="24" width="340" height="960" fill="#f8fafc" stroke="#cbd5e1" stroke-width="2" /><rect x="38" y="152" rx="20" ry="20" width="336" height="44" fill="#e2e8f0" stroke="none" /><text x="54" y="181" font-size="24" fill="#0f172a" font-family="Microsoft YaHei, Arial, sans-serif">阶段 1：输入采集</text><rect x="410" y="150" rx="24" ry="24" width="340" height="960" fill="#f8fafc" stroke="#cbd5e1" stroke-width="2" /><rect x="412" y="152" rx="20" ry="20" width="336" height="44" fill="#e2e8f0" stroke="none" /><text x="428" y="181" font-size="24" fill="#0f172a" font-family="Microsoft YaHei, Arial, sans-serif">阶段 2：请求载荷</text><rect x="784" y="150" rx="24" ry="24" width="340" height="960" fill="#f8fafc" stroke="#cbd5e1" stroke-width="2" /><rect x="786" y="152" rx="20" ry="20" width="336" height="44" fill="#e2e8f0" stroke="none" /><text x="802" y="181" font-size="24" fill="#0f172a" font-family="Microsoft YaHei, Arial, sans-serif">阶段 3：领域状态</text><rect x="1158" y="150" rx="24" ry="24" width="340" height="960" fill="#f8fafc" stroke="#cbd5e1" stroke-width="2" /><rect x="1160" y="152" rx="20" ry="20" width="336" height="44" fill="#e2e8f0" stroke="none" /><text x="1176" y="181" font-size="24" fill="#0f172a" font-family="Microsoft YaHei, Arial, sans-serif">阶段 4：外部 / 本地数据源</text><rect x="1532" y="150" rx="24" ry="24" width="340" height="960" fill="#f8fafc" stroke="#cbd5e1" stroke-width="2" /><rect x="1534" y="152" rx="20" ry="20" width="336" height="44" fill="#e2e8f0" stroke="none" /><text x="1550" y="181" font-size="24" fill="#0f172a" font-family="Microsoft YaHei, Arial, sans-serif">阶段 5：结果模型</text><rect x="1906" y="150" rx="24" ry="24" width="340" height="960" fill="#f8fafc" stroke="#cbd5e1" stroke-width="2" /><rect x="1908" y="152" rx="20" ry="20" width="336" height="44" fill="#e2e8f0" stroke="none" /><text x="1924" y="181" font-size="24" fill="#0f172a" font-family="Microsoft YaHei, Arial, sans-serif">阶段 6：持久化 / 观测</text><polyline points="356,298 430,336" fill="none" stroke="#3b82f6" stroke-width="4" /><polygon points="430,336 416.0045876035641,335.64162609792425 421.5541910971527,324.83450350514653" fill="#3b82f6" /><polyline points="356,438 430,336" fill="none" stroke="#3b82f6" stroke-width="4" /><polygon points="430,336 427.5096964956389,349.77673359168153 417.6762371139463,342.6426552167281" fill="#3b82f6" /><polyline points="356,595 430,360" fill="none" stroke="#3b82f6" stroke-width="4" /><polygon points="430,360 432.00536698929403,373.8556307412636 420.41755754383723,370.20670351163045" fill="#3b82f6" /><polyline points="730,336 430,484" fill="none" stroke="#10b981" stroke-width="4" /><polygon points="430,484 438.62446901021855,472.9719206435672 443.9993681063329,483.8669863789341" fill="#10b981" /><polyline points="730,336 430,620" fill="none" stroke="#10b981" stroke-width="4" /><polygon points="430,620 434.98407411240356,606.9172248646524 443.3360448596564,615.7397291751308" fill="#10b981" /><polyline points="730,620 580,532" fill="none" stroke="#10b981" stroke-width="4" /><polygon points="580,532 593.9532343932906,533.1433503250935 587.805792067513,543.621945198578" fill="#10b981" /><polyline points="730,484 804,264" fill="none" stroke="#10b981" stroke-width="4" /><polygon points="804,264 805.7360502540839,277.89194477081213 794.2212498544075,274.0187846363755" fill="#10b981" /><polyline points="730,484 804,392" fill="none" stroke="#10b981" stroke-width="4" /><polygon points="804,392 800.827572262134,405.63582422327374 791.3611069911512,398.021493461831" fill="#10b981" /><polyline points="730,484 804,520" fill="none" stroke="#10b981" stroke-width="4" /><polygon points="804,520 790.0001108559827,519.9442868487014 795.3147701872252,509.0197093344808" fill="#10b981" /><polyline points="730,484 804,648" fill="none" stroke="#10b981" stroke-width="4" /><polygon points="804,648 793.2753603828291,639.0009942170366 804.3490026021165,634.0043507766264" fill="#10b981" /><polyline points="1104,264 804,792" fill="none" stroke="#10b981" stroke-width="4" /><polygon points="804,792 804.9498164841934,778.0322568520769 815.5126222236054,784.0338510221973" fill="#10b981" /><polyline points="1104,392 804,792" fill="none" stroke="#10b981" stroke-width="4" /><polygon points="804,792 806.7086406122637,778.2645252709054 816.427636368497,785.5537720880803" fill="#10b981" /><polyline points="1104,520 804,792" fill="none" stroke="#10b981" stroke-width="4" /><polygon points="804,792 809.2644603851129,779.027511539663 817.4246372466519,788.0277066075369" fill="#10b981" /><polyline points="1104,648 804,792" fill="none" stroke="#10b981" stroke-width="4" /><polygon points="804,792 812.7428492877475,781.0655321879968 817.9999885495558,792.0179056500976" fill="#10b981" /><polyline points="1104,792 1552,360" fill="none" stroke="#10b981" stroke-width="4" /><polygon points="1552,360 1547.1366357167176,373.12812583151504 1538.7037598857692,364.38292126608707" fill="#10b981" /><polyline points="1852,360 1552,522" fill="none" stroke="#10b981" stroke-width="4" /><polygon points="1552,522 1560.2125117511584,510.66180566681436 1565.9849746085174,521.3515516989606" fill="#10b981" /><polyline points="1852,360 1552,676" fill="none" stroke="#10b981" stroke-width="4" /><polygon points="1552,676 1556.2792333163904,662.6700276735511 1565.089850357789,671.03453752298" fill="#10b981" /><polyline points="1852,408 1926,730" fill="none" stroke="#f59e0b" stroke-width="4" /><polygon points="1926,730 1917.2548223426134,719.0673942840352 1929.0949262493277,716.3463766160326" fill="#f59e0b" /><polyline points="1852,430 1926,334" fill="none" stroke="#f59e0b" stroke-width="4" /><polygon points="1926,334 1923.1102847800505,347.6985234951652 1913.4883550982374,340.2816193654342" fill="#f59e0b" /><polyline points="1852,458 1926,464" fill="none" stroke="#f59e0b" stroke-width="4" /><polygon points="1926,464 1912.9367885323218,469.03512722289327 1913.9185998892888,456.926120486967" fill="#f59e0b" /><polyline points="730,505 1926,594" fill="none" stroke="#f59e0b" stroke-width="4" /><polygon points="1926,594 1912.9704392741432,599.1215766411538 1913.8719919068024,587.0063300269935" fill="#f59e0b" /><polyline points="1104,820 1926,594" fill="none" stroke="#f59e0b" stroke-width="4" /><polygon points="1926,594 1915.4480722894652,603.2009141715184 1912.2274163157517,591.4868468688964" fill="#f59e0b" /><polyline points="730,454 1178,304" fill="none" stroke="#f59e0b" stroke-width="4" stroke-dasharray="10 6" /><polygon points="1178,304 1167.967670651067,313.76485370266954 1164.1104749156107,302.2446957727732" fill="#f59e0b" /><polyline points="1104,520 1178,442" fill="none" stroke="#f59e0b" stroke-width="4" stroke-dasharray="10 6" /><polygon points="1178,442 1173.725319519092,455.3314330357297 1164.9118462602014,446.96993276447455" fill="#f59e0b" /><polyline points="730,560 1178,580" fill="none" stroke="#f59e0b" stroke-width="4" stroke-dasharray="10 6" /><polygon points="1178,580 1165.1280788987565,585.5057830654106 1165.6698939268672,573.3691264357333" fill="#f59e0b" /><polyline points="1852,384 1178,714" fill="none" stroke="#f59e0b" stroke-width="4" stroke-dasharray="10 6" /><polygon points="1178,714 1186.6574652044508,702.997804935663 1191.999703742475,713.9089224345365" fill="#f59e0b" /><rect x="56" y="250" rx="20" ry="20" width="300" height="96" fill="#eff6ff" stroke="#3b82f6" stroke-width="3" /><text x="206.0" y="292.0" text-anchor="middle" font-size="20" fill="#0f172a" font-family="Microsoft YaHei, Arial, sans-serif">用户输入</text><text x="206.0" y="318.0" text-anchor="middle" font-size="20" fill="#0f172a" font-family="Microsoft YaHei, Arial, sans-serif">query_text</text><rect x="56" y="390" rx="20" ry="20" width="300" height="96" fill="#eff6ff" stroke="#3b82f6" stroke-width="3" /><text x="206.0" y="419.0" text-anchor="middle" font-size="20" fill="#0f172a" font-family="Microsoft YaHei, Arial, sans-serif">地图输入</text><text x="206.0" y="445.0" text-anchor="middle" font-size="20" fill="#0f172a" font-family="Microsoft YaHei, Arial, sans-serif">selected_coord</text><text x="206.0" y="471.0" text-anchor="middle" font-size="20" fill="#0f172a" font-family="Microsoft YaHei, Arial, sans-serif">s</text><rect x="56" y="530" rx="20" ry="20" width="300" height="130" fill="#eff6ff" stroke="#3b82f6" stroke-width="3" /><text x="206.0" y="537.0" text-anchor="middle" font-size="20" fill="#0f172a" font-family="Microsoft YaHei, Arial, sans-serif">交互选项</text><text x="206.0" y="563.0" text-anchor="middle" font-size="20" fill="#0f172a" font-family="Microsoft YaHei, Arial, sans-serif">confirmation_m</text><text x="206.0" y="589.0" text-anchor="middle" font-size="20" fill="#0f172a" font-family="Microsoft YaHei, Arial, sans-serif">ode / locale /</text><text x="206.0" y="615.0" text-anchor="middle" font-size="20" fill="#0f172a" font-family="Microsoft YaHei, Arial, sans-serif">gender / occas</text><text x="206.0" y="641.0" text-anchor="middle" font-size="20" fill="#0f172a" font-family="Microsoft YaHei, Arial, sans-serif">ion / target_d</text><text x="206.0" y="667.0" text-anchor="middle" font-size="20" fill="#0f172a" font-family="Microsoft YaHei, Arial, sans-serif">ate</text><rect x="430" y="280" rx="20" ry="20" width="300" height="110" fill="#eff6ff" stroke="#3b82f6" stroke-width="3" /><text x="580.0" y="329.0" text-anchor="middle" font-size="20" fill="#0f172a" font-family="Microsoft YaHei, Arial, sans-serif">QueryRequest</text><text x="580.0" y="355.0" text-anchor="middle" font-size="20" fill="#0f172a" font-family="Microsoft YaHei, Arial, sans-serif">前后端请求契约</text><rect x="430" y="436" rx="20" ry="20" width="300" height="96" fill="#ecfdf5" stroke="#10b981" stroke-width="3" /><text x="580.0" y="478.0" text-anchor="middle" font-size="20" fill="#0f172a" font-family="Microsoft YaHei, Arial, sans-serif">QueryState</text><text x="580.0" y="504.0" text-anchor="middle" font-size="20" fill="#0f172a" font-family="Microsoft YaHei, Arial, sans-serif">工作流运行态</text><rect x="430" y="572" rx="20" ry="20" width="300" height="96" fill="#ecfdf5" stroke="#10b981" stroke-width="3" /><text x="580.0" y="601.0" text-anchor="middle" font-size="20" fill="#0f172a" font-family="Microsoft YaHei, Arial, sans-serif">QueryPlan</text><text x="580.0" y="627.0" text-anchor="middle" font-size="20" fill="#0f172a" font-family="Microsoft YaHei, Arial, sans-serif">planner 或 fast</text><text x="580.0" y="653.0" text-anchor="middle" font-size="20" fill="#0f172a" font-family="Microsoft YaHei, Arial, sans-serif"> path 生成</text><rect x="804" y="220" rx="20" ry="20" width="300" height="88" fill="#ecfdf5" stroke="#10b981" stroke-width="3" /><text x="954.0" y="258.0" text-anchor="middle" font-size="20" fill="#0f172a" font-family="Microsoft YaHei, Arial, sans-serif">CityResolution</text><text x="954.0" y="284.0" text-anchor="middle" font-size="20" fill="#0f172a" font-family="Microsoft YaHei, Arial, sans-serif">Result</text><rect x="804" y="348" rx="20" ry="20" width="300" height="88" fill="#ecfdf5" stroke="#10b981" stroke-width="3" /><text x="954.0" y="399.0" text-anchor="middle" font-size="20" fill="#0f172a" font-family="Microsoft YaHei, Arial, sans-serif">WeatherResult</text><rect x="804" y="476" rx="20" ry="20" width="300" height="88" fill="#ecfdf5" stroke="#10b981" stroke-width="3" /><text x="954.0" y="527.0" text-anchor="middle" font-size="20" fill="#0f172a" font-family="Microsoft YaHei, Arial, sans-serif">KnowledgeHit[]</text><rect x="804" y="604" rx="20" ry="20" width="300" height="88" fill="#ecfdf5" stroke="#10b981" stroke-width="3" /><text x="954.0" y="642.0" text-anchor="middle" font-size="20" fill="#0f172a" font-family="Microsoft YaHei, Arial, sans-serif">FashionAdviceR</text><text x="954.0" y="668.0" text-anchor="middle" font-size="20" fill="#0f172a" font-family="Microsoft YaHei, Arial, sans-serif">esult</text><rect x="804" y="744" rx="20" ry="20" width="300" height="96" fill="#ecfdf5" stroke="#10b981" stroke-width="3" /><text x="954.0" y="786.0" text-anchor="middle" font-size="20" fill="#0f172a" font-family="Microsoft YaHei, Arial, sans-serif">CoordinatorRes</text><text x="954.0" y="812.0" text-anchor="middle" font-size="20" fill="#0f172a" font-family="Microsoft YaHei, Arial, sans-serif">ult</text><rect x="1178" y="260" rx="20" ry="20" width="300" height="88" fill="#fff7ed" stroke="#f59e0b" stroke-width="3" /><text x="1328.0" y="298.0" text-anchor="middle" font-size="20" fill="#0f172a" font-family="Microsoft YaHei, Arial, sans-serif">OpenWeather AP</text><text x="1328.0" y="324.0" text-anchor="middle" font-size="20" fill="#0f172a" font-family="Microsoft YaHei, Arial, sans-serif">I</text><rect x="1178" y="394" rx="20" ry="20" width="300" height="96" fill="#fff7ed" stroke="#f59e0b" stroke-width="3" /><text x="1328.0" y="423.0" text-anchor="middle" font-size="20" fill="#0f172a" font-family="Microsoft YaHei, Arial, sans-serif">resources/fash</text><text x="1328.0" y="449.0" text-anchor="middle" font-size="20" fill="#0f172a" font-family="Microsoft YaHei, Arial, sans-serif">ion_knowledge/</text><text x="1328.0" y="475.0" text-anchor="middle" font-size="20" fill="#0f172a" font-family="Microsoft YaHei, Arial, sans-serif">*.jsonl</text><rect x="1178" y="536" rx="20" ry="20" width="300" height="88" fill="#fff7ed" stroke="#f59e0b" stroke-width="3" /><text x="1328.0" y="574.0" text-anchor="middle" font-size="20" fill="#0f172a" font-family="Microsoft YaHei, Arial, sans-serif">LLM / Embeddin</text><text x="1328.0" y="600.0" text-anchor="middle" font-size="20" fill="#0f172a" font-family="Microsoft YaHei, Arial, sans-serif">g 配置</text><rect x="1178" y="670" rx="20" ry="20" width="300" height="88" fill="#fff7ed" stroke="#f59e0b" stroke-width="3" /><text x="1328.0" y="721.0" text-anchor="middle" font-size="20" fill="#0f172a" font-family="Microsoft YaHei, Arial, sans-serif">地图配置</text><rect x="1552" y="300" rx="20" ry="20" width="300" height="120" fill="#ecfdf5" stroke="#10b981" stroke-width="3" /><text x="1702.0" y="328.0" text-anchor="middle" font-size="20" fill="#0f172a" font-family="Microsoft YaHei, Arial, sans-serif">view_model</text><text x="1702.0" y="354.0" text-anchor="middle" font-size="20" fill="#0f172a" font-family="Microsoft YaHei, Arial, sans-serif">结果页 + Clarific</text><text x="1702.0" y="380.0" text-anchor="middle" font-size="20" fill="#0f172a" font-family="Microsoft YaHei, Arial, sans-serif">ation + Timeli</text><text x="1702.0" y="406.0" text-anchor="middle" font-size="20" fill="#0f172a" font-family="Microsoft YaHei, Arial, sans-serif">ne + Debug</text><rect x="1552" y="468" rx="20" ry="20" width="300" height="110" fill="#ecfdf5" stroke="#10b981" stroke-width="3" /><text x="1702.0" y="504.0" text-anchor="middle" font-size="20" fill="#0f172a" font-family="Microsoft YaHei, Arial, sans-serif">UI 渲染</text><text x="1702.0" y="530.0" text-anchor="middle" font-size="20" fill="#0f172a" font-family="Microsoft YaHei, Arial, sans-serif">结果卡片 / 候选确认 / </text><text x="1702.0" y="556.0" text-anchor="middle" font-size="20" fill="#0f172a" font-family="Microsoft YaHei, Arial, sans-serif">Trace 面板</text><rect x="1552" y="620" rx="20" ry="20" width="300" height="110" fill="#ecfdf5" stroke="#10b981" stroke-width="3" /><text x="1702.0" y="643.0" text-anchor="middle" font-size="20" fill="#0f172a" font-family="Microsoft YaHei, Arial, sans-serif">开发者视图</text><text x="1702.0" y="669.0" text-anchor="middle" font-size="20" fill="#0f172a" font-family="Microsoft YaHei, Arial, sans-serif">Trace / Logs /</text><text x="1702.0" y="695.0" text-anchor="middle" font-size="20" fill="#0f172a" font-family="Microsoft YaHei, Arial, sans-serif"> ModelConfig /</text><text x="1702.0" y="721.0" text-anchor="middle" font-size="20" fill="#0f172a" font-family="Microsoft YaHei, Arial, sans-serif"> MapConfig</text><rect x="1926" y="290" rx="20" ry="20" width="300" height="88" fill="#fff7ed" stroke="#f59e0b" stroke-width="3" /><text x="2076.0" y="341.0" text-anchor="middle" font-size="20" fill="#0f172a" font-family="Microsoft YaHei, Arial, sans-serif">history.json</text><rect x="1926" y="420" rx="20" ry="20" width="300" height="88" fill="#fff7ed" stroke="#f59e0b" stroke-width="3" /><text x="2076.0" y="471.0" text-anchor="middle" font-size="20" fill="#0f172a" font-family="Microsoft YaHei, Arial, sans-serif">favorites.json</text><rect x="1926" y="550" rx="20" ry="20" width="300" height="88" fill="#fff7ed" stroke="#f59e0b" stroke-width="3" /><text x="2076.0" y="588.0" text-anchor="middle" font-size="20" fill="#0f172a" font-family="Microsoft YaHei, Arial, sans-serif">app.events.jso</text><text x="2076.0" y="614.0" text-anchor="middle" font-size="20" fill="#0f172a" font-family="Microsoft YaHei, Arial, sans-serif">nl</text><rect x="1926" y="680" rx="20" ry="20" width="300" height="96" fill="#fff7ed" stroke="#f59e0b" stroke-width="3" /><text x="2076.0" y="709.0" text-anchor="middle" font-size="20" fill="#0f172a" font-family="Microsoft YaHei, Arial, sans-serif">sessionStorage</text><text x="2076.0" y="735.0" text-anchor="middle" font-size="20" fill="#0f172a" font-family="Microsoft YaHei, Arial, sans-serif"> /</text><text x="2076.0" y="761.0" text-anchor="middle" font-size="20" fill="#0f172a" font-family="Microsoft YaHei, Arial, sans-serif">localStorage</text>
</svg>