<svg xmlns="http://www.w3.org/2000/svg" width="2380" height="1520" viewBox="0 0 2380 1520">
<rect width="2380" height="1520" fill="#f8fafc" />
<rect x="0" y="0" width="2380" height="120" fill="#e2e8f0" />
<text x="44" y="66" font-size="38" fill="#0f172a" font-family="Microsoft YaHei, Arial, sans-serif">WeatherWear 模块关系图（V2）</text>
<text x="44" y="100" font-size="20" fill="#334155" font-family="Microsoft YaHei, Arial, sans-serif">工程接手优先：保留关键代码模块，压缩箭头类型为主调用、落盘链、开发者侧链</text>
<rect x="50" y="150" rx="24" ry="24" width="340" height="1180" fill="#f8fafc" stroke="#cbd5e1" stroke-width="2" /><rect x="52" y="152" rx="20" ry="20" width="336" height="44" fill="#e2e8f0" stroke="none" /><text x="68" y="181" font-size="24" fill="#0f172a" font-family="Microsoft YaHei, Arial, sans-serif">前端入口</text><rect x="420" y="150" rx="24" ry="24" width="340" height="1180" fill="#f8fafc" stroke="#cbd5e1" stroke-width="2" /><rect x="422" y="152" rx="20" ry="20" width="336" height="44" fill="#e2e8f0" stroke="none" /><text x="438" y="181" font-size="24" fill="#0f172a" font-family="Microsoft YaHei, Arial, sans-serif">会话与请求</text><rect x="790" y="150" rx="24" ry="24" width="420" height="1180" fill="#f8fafc" stroke="#cbd5e1" stroke-width="2" /><rect x="792" y="152" rx="20" ry="20" width="416" height="44" fill="#e2e8f0" stroke="none" /><text x="808" y="181" font-size="24" fill="#0f172a" font-family="Microsoft YaHei, Arial, sans-serif">API 与编排</text><rect x="1240" y="150" rx="24" ry="24" width="520" height="1180" fill="#f8fafc" stroke="#cbd5e1" stroke-width="2" /><rect x="1242" y="152" rx="20" ry="20" width="516" height="44" fill="#e2e8f0" stroke="none" /><text x="1258" y="181" font-size="24" fill="#0f172a" font-family="Microsoft YaHei, Arial, sans-serif">领域服务</text><rect x="1790" y="150" rx="24" ry="24" width="540" height="1180" fill="#f8fafc" stroke="#cbd5e1" stroke-width="2" /><rect x="1792" y="152" rx="20" ry="20" width="536" height="44" fill="#e2e8f0" stroke="none" /><text x="1808" y="181" font-size="24" fill="#0f172a" font-family="Microsoft YaHei, Arial, sans-serif">资源与持久化</text><rect x="100" y="250" rx="8" ry="8" width="260" height="88" fill="#e5e7eb" stroke="none" /><rect x="90" y="240" rx="8" ry="8" width="260" height="88" fill="#e0e7ff" stroke="#4f46e5" stroke-width="3" /><text x="220.0" y="290.0" text-anchor="middle" font-size="18" fill="#0f172a" font-family="Microsoft YaHei, Arial, sans-serif">AppRouter</text><rect x="100" y="402" rx="8" ry="8" width="260" height="104" fill="#e5e7eb" stroke="none" /><rect x="90" y="392" rx="8" ry="8" width="260" height="104" fill="#dbeafe" stroke="#2563eb" stroke-width="3" /><text x="220.0" y="426.0" text-anchor="middle" font-size="18" fill="#0f172a" font-family="Microsoft YaHei, Arial, sans-serif">QueryWorkspac</text><text x="220.0" y="450.0" text-anchor="middle" font-size="18" fill="#0f172a" font-family="Microsoft YaHei, Arial, sans-serif">e / QueryPane</text><text x="220.0" y="474.0" text-anchor="middle" font-size="18" fill="#0f172a" font-family="Microsoft YaHei, Arial, sans-serif">l</text><rect x="470" y="330" rx="8" ry="8" width="260" height="88" fill="#e5e7eb" stroke="none" /><rect x="460" y="320" rx="8" ry="8" width="260" height="88" fill="#dbeafe" stroke="#2563eb" stroke-width="3" /><text x="590.0" y="358.0" text-anchor="middle" font-size="18" fill="#0f172a" font-family="Microsoft YaHei, Arial, sans-serif">WeatherWearSe</text><text x="590.0" y="382.0" text-anchor="middle" font-size="18" fill="#0f172a" font-family="Microsoft YaHei, Arial, sans-serif">ssion</text><rect x="470" y="510" rx="8" ry="8" width="260" height="88" fill="#e5e7eb" stroke="none" /><rect x="460" y="500" rx="8" ry="8" width="260" height="88" fill="#fef3c7" stroke="#d97706" stroke-width="3" /><text x="590.0" y="550.0" text-anchor="middle" font-size="18" fill="#0f172a" font-family="Microsoft YaHei, Arial, sans-serif">shared/api.ts</text><rect x="875" y="250" rx="8" ry="8" width="270" height="88" fill="#e5e7eb" stroke="none" /><rect x="865" y="240" rx="8" ry="8" width="270" height="88" fill="#fef3c7" stroke="#d97706" stroke-width="3" /><text x="1000.0" y="290.0" text-anchor="middle" font-size="18" fill="#0f172a" font-family="Microsoft YaHei, Arial, sans-serif">server.py</text><rect x="875" y="418" rx="8" ry="8" width="270" height="88" fill="#e5e7eb" stroke="none" /><rect x="865" y="408" rx="8" ry="8" width="270" height="88" fill="#e0e7ff" stroke="#4f46e5" stroke-width="3" /><text x="1000.0" y="446.0" text-anchor="middle" font-size="18" fill="#0f172a" font-family="Microsoft YaHei, Arial, sans-serif">MultiAgentCoor</text><text x="1000.0" y="470.0" text-anchor="middle" font-size="18" fill="#0f172a" font-family="Microsoft YaHei, Arial, sans-serif">dinator</text><rect x="875" y="586" rx="8" ry="8" width="270" height="88" fill="#e5e7eb" stroke="none" /><rect x="865" y="576" rx="8" ry="8" width="270" height="88" fill="#e0e7ff" stroke="#4f46e5" stroke-width="3" /><text x="1000.0" y="626.0" text-anchor="middle" font-size="18" fill="#0f172a" font-family="Microsoft YaHei, Arial, sans-serif">workflow.py</text><rect x="875" y="754" rx="8" ry="8" width="270" height="88" fill="#e5e7eb" stroke="none" /><rect x="865" y="744" rx="8" ry="8" width="270" height="88" fill="#e0e7ff" stroke="#4f46e5" stroke-width="3" /><text x="1000.0" y="782.0" text-anchor="middle" font-size="18" fill="#0f172a" font-family="Microsoft YaHei, Arial, sans-serif">presentation.p</text><text x="1000.0" y="806.0" text-anchor="middle" font-size="18" fill="#0f172a" font-family="Microsoft YaHei, Arial, sans-serif">y</text><rect x="1330" y="230" rx="8" ry="8" width="360" height="88" fill="#e5e7eb" stroke="none" /><rect x="1320" y="220" rx="8" ry="8" width="360" height="88" fill="#dcfce7" stroke="#16a34a" stroke-width="3" /><text x="1500.0" y="270.0" text-anchor="middle" font-size="18" fill="#0f172a" font-family="Microsoft YaHei, Arial, sans-serif">city_resolver.py</text><rect x="1330" y="386" rx="8" ry="8" width="360" height="108" fill="#e5e7eb" stroke="none" /><rect x="1320" y="376" rx="8" ry="8" width="360" height="108" fill="#dcfce7" stroke="#16a34a" stroke-width="3" /><text x="1500.0" y="412.0" text-anchor="middle" font-size="18" fill="#0f172a" font-family="Microsoft YaHei, Arial, sans-serif">weather_service.py</text><text x="1500.0" y="436.0" text-anchor="middle" font-size="18" fill="#0f172a" font-family="Microsoft YaHei, Arial, sans-serif">OpenWeather / demo </text><text x="1500.0" y="460.0" text-anchor="middle" font-size="18" fill="#0f172a" font-family="Microsoft YaHei, Arial, sans-serif">降级</text><rect x="1330" y="574" rx="8" ry="8" width="360" height="88" fill="#e5e7eb" stroke="none" /><rect x="1320" y="564" rx="8" ry="8" width="360" height="88" fill="#dcfce7" stroke="#16a34a" stroke-width="3" /><text x="1500.0" y="602.0" text-anchor="middle" font-size="18" fill="#0f172a" font-family="Microsoft YaHei, Arial, sans-serif">fashion_knowledge.p</text><text x="1500.0" y="626.0" text-anchor="middle" font-size="18" fill="#0f172a" font-family="Microsoft YaHei, Arial, sans-serif">y</text><rect x="1330" y="730" rx="8" ry="8" width="360" height="88" fill="#e5e7eb" stroke="none" /><rect x="1320" y="720" rx="8" ry="8" width="360" height="88" fill="#dcfce7" stroke="#16a34a" stroke-width="3" /><text x="1500.0" y="770.0" text-anchor="middle" font-size="18" fill="#0f172a" font-family="Microsoft YaHei, Arial, sans-serif">fashion_agent.py</text><rect x="1870" y="250" rx="8" ry="8" width="400" height="88" fill="#e5e7eb" stroke="none" /><rect x="1860" y="240" rx="8" ry="8" width="400" height="88" fill="#fff7ed" stroke="#ea580c" stroke-width="3" /><text x="2060.0" y="278.0" text-anchor="middle" font-size="18" fill="#0f172a" font-family="Microsoft YaHei, Arial, sans-serif">resources/fashion_know</text><text x="2060.0" y="302.0" text-anchor="middle" font-size="18" fill="#0f172a" font-family="Microsoft YaHei, Arial, sans-serif">ledge/*.jsonl</text><rect x="1870" y="446" rx="8" ry="8" width="400" height="88" fill="#e5e7eb" stroke="none" /><rect x="1860" y="436" rx="8" ry="8" width="400" height="88" fill="#fff7ed" stroke="#ea580c" stroke-width="3" /><text x="2060.0" y="486.0" text-anchor="middle" font-size="18" fill="#0f172a" font-family="Microsoft YaHei, Arial, sans-serif">user_state_store.py</text><rect x="1870" y="622" rx="8" ry="8" width="400" height="104" fill="#e5e7eb" stroke="none" /><rect x="1860" y="612" rx="8" ry="8" width="400" height="104" fill="#fff7ed" stroke="#ea580c" stroke-width="3" /><text x="2060.0" y="646.0" text-anchor="middle" font-size="18" fill="#0f172a" font-family="Microsoft YaHei, Arial, sans-serif">runtime_storage.py</text><text x="2060.0" y="670.0" text-anchor="middle" font-size="18" fill="#0f172a" font-family="Microsoft YaHei, Arial, sans-serif">.runtime/state + .runt</text><text x="2060.0" y="694.0" text-anchor="middle" font-size="18" fill="#0f172a" font-family="Microsoft YaHei, Arial, sans-serif">ime/logs</text><rect x="120" y="990" rx="8" ry="8" width="220" height="120" fill="#e5e7eb" stroke="none" /><rect x="110" y="980" rx="8" ry="8" width="220" height="120" fill="#ede9fe" stroke="#7c3aed" stroke-width="3" /><text x="220.0" y="998.0" text-anchor="middle" font-size="18" fill="#0f172a" font-family="Microsoft YaHei, Arial, sans-serif">开发者功能链</text><text x="220.0" y="1022.0" text-anchor="middle" font-size="18" fill="#0f172a" font-family="Microsoft YaHei, Arial, sans-serif">Trace / Log</text><text x="220.0" y="1046.0" text-anchor="middle" font-size="18" fill="#0f172a" font-family="Microsoft YaHei, Arial, sans-serif">s / ModelCo</text><text x="220.0" y="1070.0" text-anchor="middle" font-size="18" fill="#0f172a" font-family="Microsoft YaHei, Arial, sans-serif">nfig / MapC</text><text x="220.0" y="1094.0" text-anchor="middle" font-size="18" fill="#0f172a" font-family="Microsoft YaHei, Arial, sans-serif">onfig</text><rect x="1870" y="990" rx="8" ry="8" width="400" height="120" fill="#e5e7eb" stroke="none" /><rect x="1860" y="980" rx="8" ry="8" width="400" height="120" fill="#ecfccb" stroke="#65a30d" stroke-width="3" /><text x="2060.0" y="1022.0" text-anchor="middle" font-size="18" fill="#0f172a" font-family="Microsoft YaHei, Arial, sans-serif">运行时支撑链</text><text x="2060.0" y="1046.0" text-anchor="middle" font-size="18" fill="#0f172a" font-family="Microsoft YaHei, Arial, sans-serif">history / favorites / </text><text x="2060.0" y="1070.0" text-anchor="middle" font-size="18" fill="#0f172a" font-family="Microsoft YaHei, Arial, sans-serif">trace / logs</text><polyline points="350,284 120,444" fill="none" stroke="#2563eb" stroke-width="4" /><polygon points="120,444 126.8856820884742,431.8103575861937 133.82339876014638,441.7833253017224" fill="#2563eb" /><polyline points="350,444 460,364" fill="none" stroke="#2563eb" stroke-width="4" /><polygon points="460,364 453.3717294157345,376.3315055472461 446.2261816236841,366.5063773331768" fill="#2563eb" /><polyline points="590.0,408 590.0,500" fill="none" stroke="#2563eb" stroke-width="4" /><polygon points="590.0,500 583.9256276523541,487.38643584936614 596.0743723476459,487.38643584936614" fill="#2563eb" /><polyline points="720,544 865,284" fill="none" stroke="#d97706" stroke-width="4" /><polygon points="865,284 864.161469936597,297.97486555687635 853.5511952012922,292.05759695449484" fill="#d97706" /><polyline points="1000.0,328 1000.0,408" fill="none" stroke="#4f46e5" stroke-width="4" /><polygon points="1000.0,408 993.9256276523541,395.38643584936614 1006.0743723476459,395.38643584936614" fill="#4f46e5" /><polyline points="1000.0,496 1000.0,576" fill="none" stroke="#4f46e5" stroke-width="4" /><polygon points="1000.0,576 993.9256276523541,563.3864358493661 1006.0743723476459,563.3864358493661" fill="#4f46e5" /><polyline points="1000.0,496 1000.0,744" fill="none" stroke="#4f46e5" stroke-width="4" /><polygon points="1000.0,744 993.9256276523541,731.3864358493661 1006.0743723476459,731.3864358493661" fill="#4f46e5" /><polyline points="865,788 720,364" fill="none" stroke="#4f46e5" stroke-width="4" /><polygon points="720,364 729.8290998168878,373.96939300006045 718.3339581887375,377.90051454742326" fill="#4f46e5" /><polyline points="1135,620 1320,264" fill="none" stroke="#16a34a" stroke-width="4" /><polygon points="1320,264 1319.5736962964327,277.99350796449284 1308.7936389115234,272.3915118515485" fill="#16a34a" /><polyline points="1135,620 1320,430" fill="none" stroke="#16a34a" stroke-width="4" /><polygon points="1320,430 1315.5526799873849,443.27483878265167 1306.8484544415676,434.79967180382954" fill="#16a34a" /><polyline points="1135,620 1320,764" fill="none" stroke="#16a34a" stroke-width="4" /><polygon points="1320,764 1306.3152555551408,761.0457201420832 1313.777450398528,751.4588726002318" fill="#16a34a" /><polyline points="1320,764 1680,608" fill="none" stroke="#16a34a" stroke-width="4" /><polygon points="1680,608 1670.8415688827624,618.5888214391789 1666.0111376339942,607.4416724035599" fill="#16a34a" /><polyline points="1680,608 1860,284" fill="none" stroke="#ea580c" stroke-width="4" /><polygon points="1860,284 1859.1842685188426,297.9762148720835 1848.5643549477104,292.0762628881212" fill="#ea580c" /><polyline points="1135,284 1860,480" fill="none" stroke="#ea580c" stroke-width="4" /><polygon points="1860,480 1846.2382896064503,482.57202780779403 1849.4088215995719,470.844294669972" fill="#ea580c" /><polyline points="2060.0,524 2060.0,612" fill="none" stroke="#ea580c" stroke-width="4" /><polygon points="2060.0,612 2053.9256276523543,599.3864358493661 2066.0743723476457,599.3864358493661" fill="#ea580c" /><polyline points="1135,306 1860,664" fill="none" stroke="#ea580c" stroke-width="4" stroke-dasharray="10 6" /><polygon points="1860,664 1846.0006820265578,663.8618107151012 1851.3796087440548,652.9687328654219" fill="#ea580c" /><polyline points="330,1040 480,380" fill="none" stroke="#7c3aed" stroke-width="4" stroke-dasharray="10 6" /><polygon points="480,380 483.1278880472468,393.64610993521194 471.28124793824577,390.9536917286208" fill="#7c3aed" /><polyline points="2060,716 2060,980" fill="none" stroke="#65a30d" stroke-width="4" /><polygon points="2060,980 2053.9256276523543,967.3864358493661 2066.0743723476457,967.3864358493661" fill="#65a30d" /><polyline points="1900,524 1940,980" fill="none" stroke="#65a30d" stroke-width="4" /><polygon points="1940,980 1932.846643295895,967.9654876349792 1944.9489156890568,966.9038847934738" fill="#65a30d" /><text x="90" y="1385" font-size="18" fill="#334155" font-family="Microsoft YaHei, Arial, sans-serif">图例：蓝/黑=主调用，橙色=资源与落盘，紫虚线=开发者侧链，绿色=运行时结果落盘</text>
</svg>