<svg xmlns="http://www.w3.org/2000/svg" width="2400" height="1480" viewBox="0 0 2400 1480">
<rect width="2400" height="1480" fill="#f8fafc" />
<rect x="0" y="0" width="2400" height="120" fill="#e2e8f0" />
<text x="44" y="66" font-size="38" fill="#0f172a" font-family="Microsoft YaHei, Arial, sans-serif">WeatherWear 模块关系图</text>
<text x="44" y="100" font-size="20" fill="#334155" font-family="Microsoft YaHei, Arial, sans-serif">主查询链路 + 开发者功能侧链 + 运行时支撑侧链</text>
<rect x="36" y="150" rx="24" ry="24" width="340" height="1260" fill="#f8fafc" stroke="#cbd5e1" stroke-width="2" /><rect x="38" y="152" rx="20" ry="20" width="336" height="44" fill="#e2e8f0" stroke="none" /><text x="54" y="181" font-size="24" fill="#0f172a" font-family="Microsoft YaHei, Arial, sans-serif">前端展示层</text><rect x="410" y="150" rx="24" ry="24" width="340" height="1260" fill="#f8fafc" stroke="#cbd5e1" stroke-width="2" /><rect x="412" y="152" rx="20" ry="20" width="336" height="44" fill="#e2e8f0" stroke="none" /><text x="428" y="181" font-size="24" fill="#0f172a" font-family="Microsoft YaHei, Arial, sans-serif">前端状态 / 路由层</text><rect x="784" y="150" rx="24" ry="24" width="340" height="1260" fill="#f8fafc" stroke="#cbd5e1" stroke-width="2" /><rect x="786" y="152" rx="20" ry="20" width="336" height="44" fill="#e2e8f0" stroke="none" /><text x="802" y="181" font-size="24" fill="#0f172a" font-family="Microsoft YaHei, Arial, sans-serif">API 层</text><rect x="1158" y="150" rx="24" ry="24" width="340" height="1260" fill="#f8fafc" stroke="#cbd5e1" stroke-width="2" /><rect x="1160" y="152" rx="20" ry="20" width="336" height="44" fill="#e2e8f0" stroke="none" /><text x="1176" y="181" font-size="24" fill="#0f172a" font-family="Microsoft YaHei, Arial, sans-serif">应用编排层</text><rect x="1532" y="150" rx="24" ry="24" width="340" height="1260" fill="#f8fafc" stroke="#cbd5e1" stroke-width="2" /><rect x="1534" y="152" rx="20" ry="20" width="336" height="44" fill="#e2e8f0" stroke="none" /><text x="1550" y="181" font-size="24" fill="#0f172a" font-family="Microsoft YaHei, Arial, sans-serif">服务 / 支撑层</text><rect x="1906" y="150" rx="24" ry="24" width="340" height="1260" fill="#f8fafc" stroke="#cbd5e1" stroke-width="2" /><rect x="1908" y="152" rx="20" ry="20" width="336" height="44" fill="#e2e8f0" stroke="none" /><text x="1924" y="181" font-size="24" fill="#0f172a" font-family="Microsoft YaHei, Arial, sans-serif">资源层</text><polyline points="730,285 56,285" fill="none" stroke="#475569" stroke-width="4" /><polygon points="56,285 68.61356415063386,278.9256276523542 68.61356415063386,291.0743723476458" fill="#475569" /><polyline points="356,430 56,430" fill="none" stroke="#475569" stroke-width="4" /><polygon points="56,430 68.61356415063386,423.9256276523542 68.61356415063386,436.0743723476458" fill="#475569" /><polyline points="356,594 56,594" fill="none" stroke="#475569" stroke-width="4" /><polygon points="56,594 68.61356415063386,587.9256276523541 68.61356415063386,600.0743723476459" fill="#475569" /><polyline points="356,442 430,442" fill="none" stroke="#2563eb" stroke-width="4" /><polygon points="430,442 417.38643584936614,448.0743723476458 417.38643584936614,435.9256276523542" fill="#2563eb" /><polyline points="356,594 430,480" fill="none" stroke="#8b5cf6" stroke-width="4" stroke-dasharray="10 6" /><polygon points="430,480 428.2273399892311,493.8873207094177 418.0372200233698,487.27268143333225" fill="#8b5cf6" /><polyline points="356,748 56,748" fill="none" stroke="#475569" stroke-width="4" /><polygon points="56,748 68.61356415063386,741.9256276523541 68.61356415063386,754.0743723476459" fill="#475569" /><polyline points="730,610 430,610" fill="none" stroke="#2563eb" stroke-width="4" /><polygon points="430,610 442.61356415063386,603.9256276523541 442.61356415063386,616.0743723476459" fill="#2563eb" /><polyline points="730,732 430,732" fill="none" stroke="#f97316" stroke-width="4" /><polygon points="430,732 442.61356415063386,725.9256276523541 442.61356415063386,738.0743723476459" fill="#f97316" /><polyline points="730,596 804,596" fill="none" stroke="#2563eb" stroke-width="4" /><polygon points="804,596 791.3864358493661,602.0743723476459 791.3864358493661,589.9256276523541" fill="#2563eb" /><polyline points="1104,316 1178,316" fill="none" stroke="#2563eb" stroke-width="4" /><polygon points="1178,316 1165.386435849366,322.0743723476458 1165.386435849366,309.9256276523542" fill="#2563eb" /><polyline points="1104,462 804,462" fill="none" stroke="#475569" stroke-width="4" /><polygon points="804,462 816.6135641506339,455.9256276523542 816.6135641506339,468.0743723476458" fill="#475569" /><polyline points="1104,612 1178,612" fill="none" stroke="#2563eb" stroke-width="4" /><polygon points="1178,612 1165.386435849366,618.0743723476459 1165.386435849366,605.9256276523541" fill="#2563eb" /><polyline points="1478,464 1178,464" fill="none" stroke="#2563eb" stroke-width="4" /><polygon points="1178,464 1190.613564150634,457.9256276523542 1190.613564150634,470.0743723476458" fill="#2563eb" /><polyline points="1478,264 1552,264" fill="none" stroke="#0f766e" stroke-width="4" /><polygon points="1552,264 1539.386435849366,270.0743723476458 1539.386435849366,257.9256276523542" fill="#0f766e" /><polyline points="1478,416 1552,416" fill="none" stroke="#0f766e" stroke-width="4" /><polygon points="1552,416 1539.386435849366,422.0743723476458 1539.386435849366,409.9256276523542" fill="#0f766e" /><polyline points="1478,736 1552,736" fill="none" stroke="#0f766e" stroke-width="4" /><polygon points="1552,736 1539.386435849366,742.0743723476459 1539.386435849366,729.9256276523541" fill="#0f766e" /><polyline points="1552,732 1852,732" fill="none" stroke="#0f766e" stroke-width="4" /><polygon points="1852,732 1839.386435849366,738.0743723476459 1839.386435849366,725.9256276523541" fill="#0f766e" /><polyline points="1852,410 1552,410" fill="none" stroke="#475569" stroke-width="4" /><polygon points="1552,410 1564.613564150634,403.9256276523542 1564.613564150634,416.0743723476458" fill="#475569" /><polyline points="1852,416 1926,346" fill="none" stroke="#f97316" stroke-width="4" /><polygon points="1926,346 1921.0109518090235,359.0808791045599 1912.6623362296411,350.2551997777844" fill="#f97316" /><polyline points="1852,574 1926,490" fill="none" stroke="#f97316" stroke-width="4" /><polygon points="1926,490 1922.2200087685044,503.480046969125 1913.1040889104374,495.4493556655898" fill="#f97316" /><polyline points="1852,620 1552,1024" fill="none" stroke="#16a34a" stroke-width="4" /><polygon points="1552,1024 1554.643099541712,1010.251762847092 1564.396750244135,1017.4945727746338" fill="#16a34a" /><polyline points="1852,730 1552,1024" fill="none" stroke="#16a34a" stroke-width="4" /><polygon points="1552,1024 1556.7571426377178,1010.8330112051234 1565.2603962897429,1019.5098006459651" fill="#16a34a" /><polyline points="1478,606 430,440" fill="none" stroke="#2563eb" stroke-width="4" /><polygon points="430,440 443.4085605552298,435.973773002334 441.5079317861291,447.9729233036446" fill="#2563eb" /><polyline points="1104,840 1552,880" fill="none" stroke="#16a34a" stroke-width="4" /><polygon points="1552,880 1538.896208802711,884.9285551896932 1539.9766202124208,872.8279474009436" fill="#16a34a" /><polyline points="1104,1320 1552,1320" fill="none" stroke="#16a34a" stroke-width="4" /><polygon points="1552,1320 1539.386435849366,1326.0743723476457 1539.386435849366,1313.9256276523543" fill="#16a34a" /><polyline points="1104,1584 1552,1584" fill="none" stroke="#16a34a" stroke-width="4" /><polygon points="1552,1584 1539.386435849366,1590.0743723476457 1539.386435849366,1577.9256276523543" fill="#16a34a" /><polyline points="1852,1592 1552,1454" fill="none" stroke="#16a34a" stroke-width="4" /><polygon points="1552,1454 1565.997816875671,1453.7527699144948 1560.9207883345282,1464.7897884821969" fill="#16a34a" /><polyline points="1852,1454 1926,652" fill="none" stroke="#f97316" stroke-width="4" /><polygon points="1926,652 1930.8897566051862,665.1183185028432 1918.7923989743392,664.002103459598" fill="#f97316" /><polyline points="1852,1306 1552,1454" fill="none" stroke="#16a34a" stroke-width="4" /><polygon points="1552,1454 1560.6244690102185,1442.9719206435673 1565.999368106333,1453.8669863789341" fill="#16a34a" /><polyline points="1852,880 1552,1020" fill="none" stroke="#16a34a" stroke-width="4" stroke-dasharray="10 6" /><polygon points="1552,1020 1560.8614353917244,1009.1614132471851 1565.998962945382,1020.1704008621654" fill="#16a34a" /><polyline points="1852,912 1702,634" fill="none" stroke="#16a34a" stroke-width="4" stroke-dasharray="10 6" /><polygon points="1702,634 1713.335448570649,642.2163012178332 1702.6437736217515,647.9851905787492" fill="#16a34a" /><polyline points="1852,1164 1552,1454" fill="none" stroke="#16a34a" stroke-width="4" /><polygon points="1552,1454 1556.8471829987625,1440.8658910855547 1565.2908290109488,1449.6006973050578" fill="#16a34a" /><rect x="56" y="230" rx="20" ry="20" width="300" height="104" fill="#eef2ff" stroke="#6366f1" stroke-width="3" /><text x="206.0" y="276.0" text-anchor="middle" font-size="20" fill="#0f172a" font-family="Microsoft YaHei, Arial, sans-serif">AppFrame</text><text x="206.0" y="302.0" text-anchor="middle" font-size="20" fill="#0f172a" font-family="Microsoft YaHei, Arial, sans-serif">应用框架与导航</text><rect x="56" y="372" rx="20" ry="20" width="300" height="120" fill="#eef2ff" stroke="#6366f1" stroke-width="3" /><text x="206.0" y="413.0" text-anchor="middle" font-size="20" fill="#0f172a" font-family="Microsoft YaHei, Arial, sans-serif">QueryWorkspace</text><text x="206.0" y="439.0" text-anchor="middle" font-size="20" fill="#0f172a" font-family="Microsoft YaHei, Arial, sans-serif"> / QueryPanel</text><text x="206.0" y="465.0" text-anchor="middle" font-size="20" fill="#0f172a" font-family="Microsoft YaHei, Arial, sans-serif">主查询工作台</text><rect x="56" y="536" rx="20" ry="20" width="300" height="120" fill="#f5f3ff" stroke="#8b5cf6" stroke-width="3" /><text x="206.0" y="564.0" text-anchor="middle" font-size="20" fill="#0f172a" font-family="Microsoft YaHei, Arial, sans-serif">Trace / Logs /</text><text x="206.0" y="590.0" text-anchor="middle" font-size="20" fill="#0f172a" font-family="Microsoft YaHei, Arial, sans-serif"> ModelConfig /</text><text x="206.0" y="616.0" text-anchor="middle" font-size="20" fill="#0f172a" font-family="Microsoft YaHei, Arial, sans-serif"> MapConfig</text><text x="206.0" y="642.0" text-anchor="middle" font-size="20" fill="#0f172a" font-family="Microsoft YaHei, Arial, sans-serif">开发者页面</text><rect x="56" y="700" rx="20" ry="20" width="300" height="96" fill="#eef2ff" stroke="#6366f1" stroke-width="3" /><text x="206.0" y="742.0" text-anchor="middle" font-size="20" fill="#0f172a" font-family="Microsoft YaHei, Arial, sans-serif">结果卡片 / Timelin</text><text x="206.0" y="768.0" text-anchor="middle" font-size="20" fill="#0f172a" font-family="Microsoft YaHei, Arial, sans-serif">e / Debug 面板</text><rect x="430" y="230" rx="20" ry="20" width="300" height="110" fill="#ecfeff" stroke="#0891b2" stroke-width="3" /><text x="580.0" y="279.0" text-anchor="middle" font-size="20" fill="#0f172a" font-family="Microsoft YaHei, Arial, sans-serif">AppRouter</text><text x="580.0" y="305.0" text-anchor="middle" font-size="20" fill="#0f172a" font-family="Microsoft YaHei, Arial, sans-serif">用户路由 + 开发者守卫</text><rect x="430" y="376" rx="20" ry="20" width="300" height="128" fill="#dbeafe" stroke="#2563eb" stroke-width="3" /><text x="580.0" y="408.0" text-anchor="middle" font-size="20" fill="#0f172a" font-family="Microsoft YaHei, Arial, sans-serif">WeatherWearSes</text><text x="580.0" y="434.0" text-anchor="middle" font-size="20" fill="#0f172a" font-family="Microsoft YaHei, Arial, sans-serif">sion</text><text x="580.0" y="460.0" text-anchor="middle" font-size="20" fill="#0f172a" font-family="Microsoft YaHei, Arial, sans-serif">会话状态 / 查询提交 / </text><text x="580.0" y="486.0" text-anchor="middle" font-size="20" fill="#0f172a" font-family="Microsoft YaHei, Arial, sans-serif">历史收藏联动</text><rect x="430" y="548" rx="20" ry="20" width="300" height="96" fill="#ecfeff" stroke="#0891b2" stroke-width="3" /><text x="580.0" y="590.0" text-anchor="middle" font-size="20" fill="#0f172a" font-family="Microsoft YaHei, Arial, sans-serif">shared/api.ts</text><text x="580.0" y="616.0" text-anchor="middle" font-size="20" fill="#0f172a" font-family="Microsoft YaHei, Arial, sans-serif">fetch API 封装</text><rect x="430" y="684" rx="20" ry="20" width="300" height="96" fill="#fff7ed" stroke="#f97316" stroke-width="3" /><text x="580.0" y="713.0" text-anchor="middle" font-size="20" fill="#0f172a" font-family="Microsoft YaHei, Arial, sans-serif">sessionStorage</text><text x="580.0" y="739.0" text-anchor="middle" font-size="20" fill="#0f172a" font-family="Microsoft YaHei, Arial, sans-serif"> /</text><text x="580.0" y="765.0" text-anchor="middle" font-size="20" fill="#0f172a" font-family="Microsoft YaHei, Arial, sans-serif">localStorage</text><rect x="804" y="250" rx="20" ry="20" width="300" height="120" fill="#dbeafe" stroke="#2563eb" stroke-width="3" /><text x="954.0" y="291.0" text-anchor="middle" font-size="20" fill="#0f172a" font-family="Microsoft YaHei, Arial, sans-serif">server.py</text><text x="954.0" y="317.0" text-anchor="middle" font-size="20" fill="#0f172a" font-family="Microsoft YaHei, Arial, sans-serif">FastAPI 路由与请求入</text><text x="954.0" y="343.0" text-anchor="middle" font-size="20" fill="#0f172a" font-family="Microsoft YaHei, Arial, sans-serif">口</text><rect x="804" y="414" rx="20" ry="20" width="300" height="96" fill="#eff6ff" stroke="#60a5fa" stroke-width="3" /><text x="954.0" y="456.0" text-anchor="middle" font-size="20" fill="#0f172a" font-family="Microsoft YaHei, Arial, sans-serif">schemas.py</text><text x="954.0" y="482.0" text-anchor="middle" font-size="20" fill="#0f172a" font-family="Microsoft YaHei, Arial, sans-serif">请求 / 响应契约</text><rect x="1178" y="250" rx="20" ry="20" width="300" height="120" fill="#dbeafe" stroke="#2563eb" stroke-width="3" /><text x="1328.0" y="291.0" text-anchor="middle" font-size="20" fill="#0f172a" font-family="Microsoft YaHei, Arial, sans-serif">MultiAgentCoor</text><text x="1328.0" y="317.0" text-anchor="middle" font-size="20" fill="#0f172a" font-family="Microsoft YaHei, Arial, sans-serif">dinator</text><text x="1328.0" y="343.0" text-anchor="middle" font-size="20" fill="#0f172a" font-family="Microsoft YaHei, Arial, sans-serif">查询总编排器</text><rect x="1178" y="416" rx="20" ry="20" width="300" height="96" fill="#dbeafe" stroke="#2563eb" stroke-width="3" /><text x="1328.0" y="445.0" text-anchor="middle" font-size="20" fill="#0f172a" font-family="Microsoft YaHei, Arial, sans-serif">workflow.py</text><text x="1328.0" y="471.0" text-anchor="middle" font-size="20" fill="#0f172a" font-family="Microsoft YaHei, Arial, sans-serif">LangGraph / 兼容</text><text x="1328.0" y="497.0" text-anchor="middle" font-size="20" fill="#0f172a" font-family="Microsoft YaHei, Arial, sans-serif">工作流</text><rect x="1178" y="552" rx="20" ry="20" width="300" height="110" fill="#dbeafe" stroke="#2563eb" stroke-width="3" /><text x="1328.0" y="562.0" text-anchor="middle" font-size="20" fill="#0f172a" font-family="Microsoft YaHei, Arial, sans-serif">presentation.p</text><text x="1328.0" y="588.0" text-anchor="middle" font-size="20" fill="#0f172a" font-family="Microsoft YaHei, Arial, sans-serif">y</text><text x="1328.0" y="614.0" text-anchor="middle" font-size="20" fill="#0f172a" font-family="Microsoft YaHei, Arial, sans-serif">CoordinatorRes</text><text x="1328.0" y="640.0" text-anchor="middle" font-size="20" fill="#0f172a" font-family="Microsoft YaHei, Arial, sans-serif">ult -&gt; view_mo</text><text x="1328.0" y="666.0" text-anchor="middle" font-size="20" fill="#0f172a" font-family="Microsoft YaHei, Arial, sans-serif">del</text><rect x="1552" y="210" rx="20" ry="20" width="300" height="110" fill="#ecfeff" stroke="#0f766e" stroke-width="3" /><text x="1702.0" y="246.0" text-anchor="middle" font-size="20" fill="#0f172a" font-family="Microsoft YaHei, Arial, sans-serif">city_resolver.</text><text x="1702.0" y="272.0" text-anchor="middle" font-size="20" fill="#0f172a" font-family="Microsoft YaHei, Arial, sans-serif">py</text><text x="1702.0" y="298.0" text-anchor="middle" font-size="20" fill="#0f172a" font-family="Microsoft YaHei, Arial, sans-serif">地点解析与候选确认</text><rect x="1552" y="356" rx="20" ry="20" width="300" height="120" fill="#ecfeff" stroke="#0f766e" stroke-width="3" /><text x="1702.0" y="384.0" text-anchor="middle" font-size="20" fill="#0f172a" font-family="Microsoft YaHei, Arial, sans-serif">weather_servic</text><text x="1702.0" y="410.0" text-anchor="middle" font-size="20" fill="#0f172a" font-family="Microsoft YaHei, Arial, sans-serif">e.py</text><text x="1702.0" y="436.0" text-anchor="middle" font-size="20" fill="#0f172a" font-family="Microsoft YaHei, Arial, sans-serif">天气查询 / geocodi</text><text x="1702.0" y="462.0" text-anchor="middle" font-size="20" fill="#0f172a" font-family="Microsoft YaHei, Arial, sans-serif">ng / demo 降级</text><rect x="1552" y="514" rx="20" ry="20" width="300" height="120" fill="#ecfeff" stroke="#0f766e" stroke-width="3" /><text x="1702.0" y="542.0" text-anchor="middle" font-size="20" fill="#0f172a" font-family="Microsoft YaHei, Arial, sans-serif">fashion_knowle</text><text x="1702.0" y="568.0" text-anchor="middle" font-size="20" fill="#0f172a" font-family="Microsoft YaHei, Arial, sans-serif">dge.py</text><text x="1702.0" y="594.0" text-anchor="middle" font-size="20" fill="#0f172a" font-family="Microsoft YaHei, Arial, sans-serif">规则检索 / 向量检索 / </text><text x="1702.0" y="620.0" text-anchor="middle" font-size="20" fill="#0f172a" font-family="Microsoft YaHei, Arial, sans-serif">rerank</text><rect x="1552" y="672" rx="20" ry="20" width="300" height="120" fill="#ecfeff" stroke="#0f766e" stroke-width="3" /><text x="1702.0" y="713.0" text-anchor="middle" font-size="20" fill="#0f172a" font-family="Microsoft YaHei, Arial, sans-serif">fashion_agent.</text><text x="1702.0" y="739.0" text-anchor="middle" font-size="20" fill="#0f172a" font-family="Microsoft YaHei, Arial, sans-serif">py</text><text x="1702.0" y="765.0" text-anchor="middle" font-size="20" fill="#0f172a" font-family="Microsoft YaHei, Arial, sans-serif">穿搭建议生成 / 规则兜底</text><rect x="1552" y="832" rx="20" ry="20" width="300" height="96" fill="#f0fdf4" stroke="#16a34a" stroke-width="3" /><text x="1702.0" y="861.0" text-anchor="middle" font-size="20" fill="#0f172a" font-family="Microsoft YaHei, Arial, sans-serif">health_check.p</text><text x="1702.0" y="887.0" text-anchor="middle" font-size="20" fill="#0f172a" font-family="Microsoft YaHei, Arial, sans-serif">y</text><text x="1702.0" y="913.0" text-anchor="middle" font-size="20" fill="#0f172a" font-family="Microsoft YaHei, Arial, sans-serif">运行时健康检查</text><rect x="1552" y="966" rx="20" ry="20" width="300" height="110" fill="#f0fdf4" stroke="#16a34a" stroke-width="3" /><text x="1702.0" y="1002.0" text-anchor="middle" font-size="20" fill="#0f172a" font-family="Microsoft YaHei, Arial, sans-serif">llm_support.py</text><text x="1702.0" y="1028.0" text-anchor="middle" font-size="20" fill="#0f172a" font-family="Microsoft YaHei, Arial, sans-serif">LLM / embeddin</text><text x="1702.0" y="1054.0" text-anchor="middle" font-size="20" fill="#0f172a" font-family="Microsoft YaHei, Arial, sans-serif">g 配置与调用</text><rect x="1552" y="1116" rx="20" ry="20" width="300" height="96" fill="#f0fdf4" stroke="#16a34a" stroke-width="3" /><text x="1702.0" y="1158.0" text-anchor="middle" font-size="20" fill="#0f172a" font-family="Microsoft YaHei, Arial, sans-serif">map_support.py</text><text x="1702.0" y="1184.0" text-anchor="middle" font-size="20" fill="#0f172a" font-family="Microsoft YaHei, Arial, sans-serif">地图配置与测试</text><rect x="1552" y="1250" rx="20" ry="20" width="300" height="110" fill="#f0fdf4" stroke="#16a34a" stroke-width="3" /><text x="1702.0" y="1273.0" text-anchor="middle" font-size="20" fill="#0f172a" font-family="Microsoft YaHei, Arial, sans-serif">observability </text><text x="1702.0" y="1299.0" text-anchor="middle" font-size="20" fill="#0f172a" font-family="Microsoft YaHei, Arial, sans-serif">+ logs_support</text><text x="1702.0" y="1325.0" text-anchor="middle" font-size="20" fill="#0f172a" font-family="Microsoft YaHei, Arial, sans-serif">trace / metric</text><text x="1702.0" y="1351.0" text-anchor="middle" font-size="20" fill="#0f172a" font-family="Microsoft YaHei, Arial, sans-serif">s / 结构化事件</text><rect x="1552" y="1400" rx="20" ry="20" width="300" height="110" fill="#f0fdf4" stroke="#16a34a" stroke-width="3" /><text x="1702.0" y="1410.0" text-anchor="middle" font-size="20" fill="#0f172a" font-family="Microsoft YaHei, Arial, sans-serif">runtime_storag</text><text x="1702.0" y="1436.0" text-anchor="middle" font-size="20" fill="#0f172a" font-family="Microsoft YaHei, Arial, sans-serif">e.py</text><text x="1702.0" y="1462.0" text-anchor="middle" font-size="20" fill="#0f172a" font-family="Microsoft YaHei, Arial, sans-serif">.runtime/state</text><text x="1702.0" y="1488.0" text-anchor="middle" font-size="20" fill="#0f172a" font-family="Microsoft YaHei, Arial, sans-serif"> + .runtime/lo</text><text x="1702.0" y="1514.0" text-anchor="middle" font-size="20" fill="#0f172a" font-family="Microsoft YaHei, Arial, sans-serif">gs</text><rect x="1552" y="1544" rx="20" ry="20" width="300" height="96" fill="#f0fdf4" stroke="#16a34a" stroke-width="3" /><text x="1702.0" y="1560.0" text-anchor="middle" font-size="20" fill="#0f172a" font-family="Microsoft YaHei, Arial, sans-serif">user_state_sto</text><text x="1702.0" y="1586.0" text-anchor="middle" font-size="20" fill="#0f172a" font-family="Microsoft YaHei, Arial, sans-serif">re.py</text><text x="1702.0" y="1612.0" text-anchor="middle" font-size="20" fill="#0f172a" font-family="Microsoft YaHei, Arial, sans-serif">history / favo</text><text x="1702.0" y="1638.0" text-anchor="middle" font-size="20" fill="#0f172a" font-family="Microsoft YaHei, Arial, sans-serif">rites 读写</text><rect x="1926" y="300" rx="20" ry="20" width="300" height="92" fill="#fff7ed" stroke="#f97316" stroke-width="3" /><text x="2076.0" y="340.0" text-anchor="middle" font-size="20" fill="#0f172a" font-family="Microsoft YaHei, Arial, sans-serif">OpenWeather AP</text><text x="2076.0" y="366.0" text-anchor="middle" font-size="20" fill="#0f172a" font-family="Microsoft YaHei, Arial, sans-serif">I</text><rect x="1926" y="442" rx="20" ry="20" width="300" height="96" fill="#fff7ed" stroke="#f97316" stroke-width="3" /><text x="2076.0" y="471.0" text-anchor="middle" font-size="20" fill="#0f172a" font-family="Microsoft YaHei, Arial, sans-serif">resources/fash</text><text x="2076.0" y="497.0" text-anchor="middle" font-size="20" fill="#0f172a" font-family="Microsoft YaHei, Arial, sans-serif">ion_knowledge/</text><text x="2076.0" y="523.0" text-anchor="middle" font-size="20" fill="#0f172a" font-family="Microsoft YaHei, Arial, sans-serif">*.jsonl</text><rect x="1926" y="590" rx="20" ry="20" width="300" height="120" fill="#fff7ed" stroke="#f97316" stroke-width="3" /><text x="2076.0" y="592.0" text-anchor="middle" font-size="20" fill="#0f172a" font-family="Microsoft YaHei, Arial, sans-serif">.runtime/state</text><text x="2076.0" y="618.0" text-anchor="middle" font-size="20" fill="#0f172a" font-family="Microsoft YaHei, Arial, sans-serif">/*.json</text><text x="2076.0" y="644.0" text-anchor="middle" font-size="20" fill="#0f172a" font-family="Microsoft YaHei, Arial, sans-serif">.runtime/logs/</text><text x="2076.0" y="670.0" text-anchor="middle" font-size="20" fill="#0f172a" font-family="Microsoft YaHei, Arial, sans-serif">*.log</text><text x="2076.0" y="696.0" text-anchor="middle" font-size="20" fill="#0f172a" font-family="Microsoft YaHei, Arial, sans-serif">app.events.jso</text><text x="2076.0" y="722.0" text-anchor="middle" font-size="20" fill="#0f172a" font-family="Microsoft YaHei, Arial, sans-serif">nl</text>
</svg>