<svg xmlns="http://www.w3.org/2000/svg" width="2400" height="1480" viewBox="0 0 2400 1480">
<rect width="2400" height="1480" fill="#f8fafc" />
<rect x="0" y="0" width="2400" height="120" fill="#e2e8f0" />
<text x="44" y="66" font-size="38" fill="#0f172a" font-family="Microsoft YaHei, Arial, sans-serif">WeatherWear 请求时序图</text>
<text x="44" y="100" font-size="20" fill="#334155" font-family="Microsoft YaHei, Arial, sans-serif">一次 /api/query 的主成功链路 + Clarification / 规则兜底 / Degraded 分支</text>
<rect x="20" y="160" rx="16" ry="16" width="140" height="60" fill="#ffffff" stroke="#94a3b8" stroke-width="2" /><text x="90.0" y="196.0" text-anchor="middle" font-size="18" fill="#0f172a" font-family="Microsoft YaHei, Arial, sans-serif">用户</text><line x1="90" y1="220" x2="90" y2="1360" stroke="#cbd5e1" stroke-width="3" stroke-dasharray="10 8" /><rect x="210" y="160" rx="16" ry="16" width="140" height="60" fill="#ffffff" stroke="#94a3b8" stroke-width="2" /><text x="280.0" y="172.0" text-anchor="middle" font-size="18" fill="#0f172a" font-family="Microsoft YaHei, Arial, sans-serif">QueryPa</text><text x="280.0" y="196.0" text-anchor="middle" font-size="18" fill="#0f172a" font-family="Microsoft YaHei, Arial, sans-serif">nel / S</text><text x="280.0" y="220.0" text-anchor="middle" font-size="18" fill="#0f172a" font-family="Microsoft YaHei, Arial, sans-serif">ession</text><line x1="280" y1="220" x2="280" y2="1360" stroke="#cbd5e1" stroke-width="3" stroke-dasharray="10 8" /><rect x="400" y="160" rx="16" ry="16" width="140" height="60" fill="#ffffff" stroke="#94a3b8" stroke-width="2" /><text x="470.0" y="184.0" text-anchor="middle" font-size="18" fill="#0f172a" font-family="Microsoft YaHei, Arial, sans-serif">shared/</text><text x="470.0" y="208.0" text-anchor="middle" font-size="18" fill="#0f172a" font-family="Microsoft YaHei, Arial, sans-serif">api.ts</text><line x1="470" y1="220" x2="470" y2="1360" stroke="#cbd5e1" stroke-width="3" stroke-dasharray="10 8" /><rect x="590" y="160" rx="16" ry="16" width="140" height="60" fill="#ffffff" stroke="#94a3b8" stroke-width="2" /><text x="660.0" y="172.0" text-anchor="middle" font-size="18" fill="#0f172a" font-family="Microsoft YaHei, Arial, sans-serif">FastAPI</text><text x="660.0" y="196.0" text-anchor="middle" font-size="18" fill="#0f172a" font-family="Microsoft YaHei, Arial, sans-serif"> /api/q</text><text x="660.0" y="220.0" text-anchor="middle" font-size="18" fill="#0f172a" font-family="Microsoft YaHei, Arial, sans-serif">uery</text><line x1="660" y1="220" x2="660" y2="1360" stroke="#cbd5e1" stroke-width="3" stroke-dasharray="10 8" /><rect x="780" y="160" rx="16" ry="16" width="140" height="60" fill="#ffffff" stroke="#94a3b8" stroke-width="2" /><text x="850.0" y="172.0" text-anchor="middle" font-size="18" fill="#0f172a" font-family="Microsoft YaHei, Arial, sans-serif">MultiAg</text><text x="850.0" y="196.0" text-anchor="middle" font-size="18" fill="#0f172a" font-family="Microsoft YaHei, Arial, sans-serif">entCoor</text><text x="850.0" y="220.0" text-anchor="middle" font-size="18" fill="#0f172a" font-family="Microsoft YaHei, Arial, sans-serif">dinator</text><line x1="850" y1="220" x2="850" y2="1360" stroke="#cbd5e1" stroke-width="3" stroke-dasharray="10 8" /><rect x="970" y="160" rx="16" ry="16" width="140" height="60" fill="#ffffff" stroke="#94a3b8" stroke-width="2" /><text x="1040.0" y="184.0" text-anchor="middle" font-size="18" fill="#0f172a" font-family="Microsoft YaHei, Arial, sans-serif">workflo</text><text x="1040.0" y="208.0" text-anchor="middle" font-size="18" fill="#0f172a" font-family="Microsoft YaHei, Arial, sans-serif">w</text><line x1="1040" y1="220" x2="1040" y2="1360" stroke="#cbd5e1" stroke-width="3" stroke-dasharray="10 8" /><rect x="1160" y="160" rx="16" ry="16" width="140" height="60" fill="#ffffff" stroke="#94a3b8" stroke-width="2" /><text x="1230.0" y="184.0" text-anchor="middle" font-size="18" fill="#0f172a" font-family="Microsoft YaHei, Arial, sans-serif">CityRes</text><text x="1230.0" y="208.0" text-anchor="middle" font-size="18" fill="#0f172a" font-family="Microsoft YaHei, Arial, sans-serif">olver</text><line x1="1230" y1="220" x2="1230" y2="1360" stroke="#cbd5e1" stroke-width="3" stroke-dasharray="10 8" /><rect x="1350" y="160" rx="16" ry="16" width="140" height="60" fill="#ffffff" stroke="#94a3b8" stroke-width="2" /><text x="1420.0" y="184.0" text-anchor="middle" font-size="18" fill="#0f172a" font-family="Microsoft YaHei, Arial, sans-serif">Weather</text><text x="1420.0" y="208.0" text-anchor="middle" font-size="18" fill="#0f172a" font-family="Microsoft YaHei, Arial, sans-serif">Service</text><line x1="1420" y1="220" x2="1420" y2="1360" stroke="#cbd5e1" stroke-width="3" stroke-dasharray="10 8" /><rect x="1540" y="160" rx="16" ry="16" width="140" height="60" fill="#ffffff" stroke="#94a3b8" stroke-width="2" /><text x="1610.0" y="172.0" text-anchor="middle" font-size="18" fill="#0f172a" font-family="Microsoft YaHei, Arial, sans-serif">Fashion</text><text x="1610.0" y="196.0" text-anchor="middle" font-size="18" fill="#0f172a" font-family="Microsoft YaHei, Arial, sans-serif">Knowled</text><text x="1610.0" y="220.0" text-anchor="middle" font-size="18" fill="#0f172a" font-family="Microsoft YaHei, Arial, sans-serif">ge</text><line x1="1610" y1="220" x2="1610" y2="1360" stroke="#cbd5e1" stroke-width="3" stroke-dasharray="10 8" /><rect x="1730" y="160" rx="16" ry="16" width="140" height="60" fill="#ffffff" stroke="#94a3b8" stroke-width="2" /><text x="1800.0" y="184.0" text-anchor="middle" font-size="18" fill="#0f172a" font-family="Microsoft YaHei, Arial, sans-serif">Fashion</text><text x="1800.0" y="208.0" text-anchor="middle" font-size="18" fill="#0f172a" font-family="Microsoft YaHei, Arial, sans-serif">Agent</text><line x1="1800" y1="220" x2="1800" y2="1360" stroke="#cbd5e1" stroke-width="3" stroke-dasharray="10 8" /><rect x="1920" y="160" rx="16" ry="16" width="140" height="60" fill="#ffffff" stroke="#94a3b8" stroke-width="2" /><text x="1990.0" y="184.0" text-anchor="middle" font-size="18" fill="#0f172a" font-family="Microsoft YaHei, Arial, sans-serif">Present</text><text x="1990.0" y="208.0" text-anchor="middle" font-size="18" fill="#0f172a" font-family="Microsoft YaHei, Arial, sans-serif">ation</text><line x1="1990" y1="220" x2="1990" y2="1360" stroke="#cbd5e1" stroke-width="3" stroke-dasharray="10 8" /><rect x="2110" y="160" rx="16" ry="16" width="140" height="60" fill="#ffffff" stroke="#94a3b8" stroke-width="2" /><text x="2180.0" y="184.0" text-anchor="middle" font-size="18" fill="#0f172a" font-family="Microsoft YaHei, Arial, sans-serif">Session</text><text x="2180.0" y="208.0" text-anchor="middle" font-size="18" fill="#0f172a" font-family="Microsoft YaHei, Arial, sans-serif"> / UI</text><line x1="2180" y1="220" x2="2180" y2="1360" stroke="#cbd5e1" stroke-width="3" stroke-dasharray="10 8" /><rect x="60" y="280" rx="18" ry="18" width="2280" height="98" fill="#f8fafc" stroke="#cbd5e1" stroke-width="2" /><text x="78" y="308" font-size="20" fill="#334155" font-family="Microsoft YaHei, Arial, sans-serif">alt 复杂查询且 LLM 可用 / else fast path</text><rect x="60" y="468" rx="18" ry="18" width="2280" height="132" fill="#f8fafc" stroke="#cbd5e1" stroke-width="2" /><text x="78" y="496" font-size="20" fill="#334155" font-family="Microsoft YaHei, Arial, sans-serif">alt strict / needs_clarification</text><rect x="60" y="648" rx="18" ry="18" width="2280" height="126" fill="#f8fafc" stroke="#cbd5e1" stroke-width="2" /><text x="78" y="676" font-size="20" fill="#334155" font-family="Microsoft YaHei, Arial, sans-serif">alt OpenWeather live / demo-degraded</text><rect x="60" y="822" rx="18" ry="18" width="2280" height="124" fill="#f8fafc" stroke="#cbd5e1" stroke-width="2" /><text x="78" y="850" font-size="20" fill="#334155" font-family="Microsoft YaHei, Arial, sans-serif">alt LLM 可用 / 规则兜底</text><rect x="60" y="1130" rx="18" ry="18" width="2280" height="130" fill="#f8fafc" stroke="#cbd5e1" stroke-width="2" /><text x="78" y="1158" font-size="20" fill="#334155" font-family="Microsoft YaHei, Arial, sans-serif">par 后端观测链 / 前端本地状态链</text><polyline points="90,220 280,220" fill="none" stroke="#2563eb" stroke-width="4" /><polygon points="280,220 267.38643584936614,226.0743723476458 267.38643584936614,213.9256276523542" fill="#2563eb" /><text x="96" y="212" font-size="15" fill="#334155" font-family="Microsoft YaHei, Arial, sans-serif">提交文本地点或地图点位</text><polyline points="280,252 280,252" fill="none" stroke="#475569" stroke-width="4" /><polygon points="280,252 267.38643584936614,258.0743723476458 267.38643584936614,245.9256276523542" fill="#475569" /><text x="286" y="244" font-size="15" fill="#334155" font-family="Microsoft YaHei, Arial, sans-serif">组装 QueryRequest</text><polyline points="280,410 470,410" fill="none" stroke="#2563eb" stroke-width="4" /><polygon points="470,410 457.38643584936614,416.0743723476458 457.38643584936614,403.9256276523542" fill="#2563eb" /><text x="286" y="402" font-size="15" fill="#334155" font-family="Microsoft YaHei, Arial, sans-serif">postQuery(payload)</text><polyline points="470,442 660,442" fill="none" stroke="#2563eb" stroke-width="4" /><polygon points="660,442 647.3864358493661,448.0743723476458 647.3864358493661,435.9256276523542" fill="#2563eb" /><text x="476" y="434" font-size="15" fill="#334155" font-family="Microsoft YaHei, Arial, sans-serif">POST /api/query</text><polyline points="660,506 660,506" fill="none" stroke="#475569" stroke-width="4" /><polygon points="660,506 647.3864358493661,512.0743723476459 647.3864358493661,499.9256276523542" fill="#475569" /><text x="666" y="498" font-size="15" fill="#334155" font-family="Microsoft YaHei, Arial, sans-serif">生成 request_id / 记录 query.started</text><polyline points="660,538 850,538" fill="none" stroke="#2563eb" stroke-width="4" /><polygon points="850,538 837.3864358493661,544.0743723476459 837.3864358493661,531.9256276523541" fill="#2563eb" /><text x="666" y="530" font-size="15" fill="#334155" font-family="Microsoft YaHei, Arial, sans-serif">process_query(payload)</text><polyline points="850,570 1040,570" fill="none" stroke="#2563eb" stroke-width="4" /><polygon points="1040,570 1027.386435849366,576.0743723476459 1027.386435849366,563.9256276523541" fill="#2563eb" /><text x="856" y="562" font-size="15" fill="#334155" font-family="Microsoft YaHei, Arial, sans-serif">run_query_workflow(QueryState)</text><polyline points="1040,330 850,330" fill="none" stroke="#7c3aed" stroke-width="4" /><polygon points="850,330 862.6135641506339,323.9256276523542 862.6135641506339,336.0743723476458" fill="#7c3aed" /><text x="856" y="322" font-size="15" fill="#334155" font-family="Microsoft YaHei, Arial, sans-serif">调用 planner 节点</text><polyline points="1040,360 850,360" fill="none" stroke="#0f766e" stroke-width="4" /><polygon points="850,360 862.6135641506339,353.9256276523542 862.6135641506339,366.0743723476458" fill="#0f766e" /><text x="856" y="352" font-size="15" fill="#334155" font-family="Microsoft YaHei, Arial, sans-serif">走 fast path</text><polyline points="1040,626 1230,626" fill="none" stroke="#2563eb" stroke-width="4" /><polygon points="1230,626 1217.386435849366,632.0743723476459 1217.386435849366,619.9256276523541" fill="#2563eb" /><text x="1046" y="618" font-size="15" fill="#334155" font-family="Microsoft YaHei, Arial, sans-serif">resolve_city(...)</text><polyline points="1230,658 1040,658" fill="none" stroke="#2563eb" stroke-width="4" stroke-dasharray="10 6" /><polygon points="1040,658 1052.613564150634,651.9256276523541 1052.613564150634,664.0743723476459" fill="#2563eb" /><text x="1046" y="650" font-size="15" fill="#334155" font-family="Microsoft YaHei, Arial, sans-serif">CityResolutionResult</text><polyline points="1040,714 1420,714" fill="none" stroke="#2563eb" stroke-width="4" /><polygon points="1420,714 1407.386435849366,720.0743723476459 1407.386435849366,707.9256276523541" fill="#2563eb" /><text x="1046" y="706" font-size="15" fill="#334155" font-family="Microsoft YaHei, Arial, sans-serif">fetch weather by city / coords</text><polyline points="1420,746 1040,746" fill="none" stroke="#2563eb" stroke-width="4" stroke-dasharray="10 6" /><polygon points="1040,746 1052.613564150634,739.9256276523541 1052.613564150634,752.0743723476459" fill="#2563eb" /><text x="1046" y="738" font-size="15" fill="#334155" font-family="Microsoft YaHei, Arial, sans-serif">WeatherResult(live / demo)</text><polyline points="1040,806 1800,806" fill="none" stroke="#2563eb" stroke-width="4" /><polygon points="1800,806 1787.386435849366,812.0743723476459 1787.386435849366,799.9256276523541" fill="#2563eb" /><text x="1046" y="798" font-size="15" fill="#334155" font-family="Microsoft YaHei, Arial, sans-serif">get_fashion_advice(weather, locale, query_context)</text><polyline points="1800,838 1610,838" fill="none" stroke="#0f766e" stroke-width="4" /><polygon points="1610,838 1622.613564150634,831.9256276523541 1622.613564150634,844.0743723476459" fill="#0f766e" /><text x="1616" y="830" font-size="15" fill="#334155" font-family="Microsoft YaHei, Arial, sans-serif">retrieve_knowledge_hits(...)</text><polyline points="1610,870 1800,870" fill="none" stroke="#0f766e" stroke-width="4" stroke-dasharray="10 6" /><polygon points="1800,870 1787.386435849366,876.0743723476459 1787.386435849366,863.9256276523541" fill="#0f766e" /><text x="1616" y="862" font-size="15" fill="#334155" font-family="Microsoft YaHei, Arial, sans-serif">KnowledgeHit[]</text><polyline points="1800,916 1040,916" fill="none" stroke="#2563eb" stroke-width="4" stroke-dasharray="10 6" /><polygon points="1040,916 1052.613564150634,909.9256276523541 1052.613564150634,922.0743723476459" fill="#2563eb" /><text x="1046" y="908" font-size="15" fill="#334155" font-family="Microsoft YaHei, Arial, sans-serif">FashionAdviceResult(LLM / 规则兜底)</text><polyline points="1040,982 850,982" fill="none" stroke="#2563eb" stroke-width="4" stroke-dasharray="10 6" /><polygon points="850,982 862.6135641506339,975.9256276523541 862.6135641506339,988.0743723476459" fill="#2563eb" /><text x="856" y="974" font-size="15" fill="#334155" font-family="Microsoft YaHei, Arial, sans-serif">CoordinatorResult</text><polyline points="850,1014 1990,1014" fill="none" stroke="#2563eb" stroke-width="4" /><polygon points="1990,1014 1977.386435849366,1020.0743723476459 1977.386435849366,1007.9256276523541" fill="#2563eb" /><text x="856" y="1006" font-size="15" fill="#334155" font-family="Microsoft YaHei, Arial, sans-serif">build_result_view_model(result)</text><polyline points="1990,1046 660,1046" fill="none" stroke="#2563eb" stroke-width="4" stroke-dasharray="10 6" /><polygon points="660,1046 672.6135641506339,1039.9256276523543 672.6135641506339,1052.0743723476457" fill="#2563eb" /><text x="666" y="1038" font-size="15" fill="#334155" font-family="Microsoft YaHei, Arial, sans-serif">QueryResponse(view_model)</text><polyline points="660,1078 470,1078" fill="none" stroke="#2563eb" stroke-width="4" stroke-dasharray="10 6" /><polygon points="470,1078 482.61356415063386,1071.9256276523543 482.61356415063386,1084.0743723476457" fill="#2563eb" /><text x="476" y="1070" font-size="15" fill="#334155" font-family="Microsoft YaHei, Arial, sans-serif">200 OK</text><polyline points="470,1110 2180,1110" fill="none" stroke="#2563eb" stroke-width="4" stroke-dasharray="10 6" /><polygon points="2180,1110 2167.386435849366,1116.0743723476457 2167.386435849366,1103.9256276523543" fill="#2563eb" /><text x="476" y="1102" font-size="15" fill="#334155" font-family="Microsoft YaHei, Arial, sans-serif">返回 view_model</text><polyline points="2180,1144 2180,1144" fill="none" stroke="#475569" stroke-width="4" /><polygon points="2180,1144 2167.386435849366,1150.0743723476457 2167.386435849366,1137.9256276523543" fill="#475569" /><text x="2186" y="1136" font-size="15" fill="#334155" font-family="Microsoft YaHei, Arial, sans-serif">更新结果区 / notice / 历史收藏状态</text><polyline points="660,1206 660,1206" fill="none" stroke="#16a34a" stroke-width="4" /><polygon points="660,1206 647.3864358493661,1212.0743723476457 647.3864358493661,1199.9256276523543" fill="#16a34a" /><text x="666" y="1198" font-size="15" fill="#334155" font-family="Microsoft YaHei, Arial, sans-serif">写 step trace / app.events.jsonl / logs</text><polyline points="2180,1238 2180,1238" fill="none" stroke="#f97316" stroke-width="4" /><polygon points="2180,1238 2167.386435849366,1244.0743723476457 2167.386435849366,1231.9256276523543" fill="#f97316" /><text x="2186" y="1230" font-size="15" fill="#334155" font-family="Microsoft YaHei, Arial, sans-serif">写 sessionStorage / localStorage</text><rect x="1640" y="180" rx="16" ry="16" width="650" height="140" fill="#ffffff" stroke="#cbd5e1" stroke-width="2" /><text x="1660" y="212" font-size="22" fill="#0f172a" font-family="Microsoft YaHei, Arial, sans-serif">关键分支说明</text><text x="1660" y="242" font-size="18" fill="#334155" font-family="Microsoft YaHei, Arial, sans-serif">1. strict 模式可能提前返回候选确认</text><text x="1660" y="270" font-size="18" fill="#334155" font-family="Microsoft YaHei, Arial, sans-serif">2. LLM 不可用时由 FashionAgent 规则兜底</text><text x="1660" y="298" font-size="18" fill="#334155" font-family="Microsoft YaHei, Arial, sans-serif">3. OpenWeather 未配置时走 demo / degraded</text>
</svg>