<svg xmlns="http://www.w3.org/2000/svg" width="2600" height="1800" viewBox="0 0 2600 1800">
<rect width="2600" height="1800" fill="#f8fafc" />
<rect x="0" y="0" width="2600" height="120" fill="#e2e8f0" />
<text x="44" y="66" font-size="38" fill="#0f172a" font-family="Microsoft YaHei, Arial, sans-serif">WeatherWear 请求时序图（V2）</text>
<text x="44" y="100" font-size="20" fill="#334155" font-family="Microsoft YaHei, Arial, sans-serif">参考教材式泳道 + loop 结构，展示一次查询从规划到结果输出的完整过程</text>
<rect x="30" y="160" rx="10" ry="10" width="180" height="56" fill="#ffffff" stroke="#312e49" stroke-width="2" /><text x="120.0" y="194.0" text-anchor="middle" font-size="18" fill="#0f172a" font-family="Microsoft YaHei, Arial, sans-serif">用户</text><rect x="30" y="1670" rx="10" ry="10" width="180" height="56" fill="#ffffff" stroke="#312e49" stroke-width="2" /><text x="120.0" y="1704.0" text-anchor="middle" font-size="18" fill="#0f172a" font-family="Microsoft YaHei, Arial, sans-serif">用户</text><line x1="120" y1="216" x2="120" y2="1670" stroke="#312e49" stroke-width="2" stroke-dasharray="9 7" /><rect x="320" y="160" rx="10" ry="10" width="180" height="56" fill="#ffffff" stroke="#312e49" stroke-width="2" /><text x="410.0" y="194.0" text-anchor="middle" font-size="18" fill="#0f172a" font-family="Microsoft YaHei, Arial, sans-serif">前端</text><rect x="320" y="1670" rx="10" ry="10" width="180" height="56" fill="#ffffff" stroke="#312e49" stroke-width="2" /><text x="410.0" y="1704.0" text-anchor="middle" font-size="18" fill="#0f172a" font-family="Microsoft YaHei, Arial, sans-serif">前端</text><line x1="410" y1="216" x2="410" y2="1670" stroke="#312e49" stroke-width="2" stroke-dasharray="9 7" /><rect x="610" y="160" rx="10" ry="10" width="180" height="56" fill="#ffffff" stroke="#312e49" stroke-width="2" /><text x="700.0" y="194.0" text-anchor="middle" font-size="18" fill="#0f172a" font-family="Microsoft YaHei, Arial, sans-serif">后端 API</text><rect x="610" y="1670" rx="10" ry="10" width="180" height="56" fill="#ffffff" stroke="#312e49" stroke-width="2" /><text x="700.0" y="1704.0" text-anchor="middle" font-size="18" fill="#0f172a" font-family="Microsoft YaHei, Arial, sans-serif">后端 API</text><line x1="700" y1="216" x2="700" y2="1670" stroke="#312e49" stroke-width="2" stroke-dasharray="9 7" /><rect x="900" y="160" rx="10" ry="10" width="180" height="56" fill="#ffffff" stroke="#312e49" stroke-width="2" /><text x="990.0" y="194.0" text-anchor="middle" font-size="18" fill="#0f172a" font-family="Microsoft YaHei, Arial, sans-serif">Planner</text><rect x="900" y="1670" rx="10" ry="10" width="180" height="56" fill="#ffffff" stroke="#312e49" stroke-width="2" /><text x="990.0" y="1704.0" text-anchor="middle" font-size="18" fill="#0f172a" font-family="Microsoft YaHei, Arial, sans-serif">Planner</text><line x1="990" y1="216" x2="990" y2="1670" stroke="#312e49" stroke-width="2" stroke-dasharray="9 7" /><rect x="1190" y="160" rx="10" ry="10" width="180" height="56" fill="#ffffff" stroke="#312e49" stroke-width="2" /><text x="1280.0" y="182.0" text-anchor="middle" font-size="18" fill="#0f172a" font-family="Microsoft YaHei, Arial, sans-serif">City Reso</text><text x="1280.0" y="206.0" text-anchor="middle" font-size="18" fill="#0f172a" font-family="Microsoft YaHei, Arial, sans-serif">lver</text><rect x="1190" y="1670" rx="10" ry="10" width="180" height="56" fill="#ffffff" stroke="#312e49" stroke-width="2" /><text x="1280.0" y="1692.0" text-anchor="middle" font-size="18" fill="#0f172a" font-family="Microsoft YaHei, Arial, sans-serif">City Reso</text><text x="1280.0" y="1716.0" text-anchor="middle" font-size="18" fill="#0f172a" font-family="Microsoft YaHei, Arial, sans-serif">lver</text><line x1="1280" y1="216" x2="1280" y2="1670" stroke="#312e49" stroke-width="2" stroke-dasharray="9 7" /><rect x="1480" y="160" rx="10" ry="10" width="180" height="56" fill="#ffffff" stroke="#312e49" stroke-width="2" /><text x="1570.0" y="182.0" text-anchor="middle" font-size="18" fill="#0f172a" font-family="Microsoft YaHei, Arial, sans-serif">Weather S</text><text x="1570.0" y="206.0" text-anchor="middle" font-size="18" fill="#0f172a" font-family="Microsoft YaHei, Arial, sans-serif">ervice</text><rect x="1480" y="1670" rx="10" ry="10" width="180" height="56" fill="#ffffff" stroke="#312e49" stroke-width="2" /><text x="1570.0" y="1692.0" text-anchor="middle" font-size="18" fill="#0f172a" font-family="Microsoft YaHei, Arial, sans-serif">Weather S</text><text x="1570.0" y="1716.0" text-anchor="middle" font-size="18" fill="#0f172a" font-family="Microsoft YaHei, Arial, sans-serif">ervice</text><line x1="1570" y1="216" x2="1570" y2="1670" stroke="#312e49" stroke-width="2" stroke-dasharray="9 7" /><rect x="1770" y="160" rx="10" ry="10" width="180" height="56" fill="#ffffff" stroke="#312e49" stroke-width="2" /><text x="1860.0" y="182.0" text-anchor="middle" font-size="18" fill="#0f172a" font-family="Microsoft YaHei, Arial, sans-serif">Fashion A</text><text x="1860.0" y="206.0" text-anchor="middle" font-size="18" fill="#0f172a" font-family="Microsoft YaHei, Arial, sans-serif">gent</text><rect x="1770" y="1670" rx="10" ry="10" width="180" height="56" fill="#ffffff" stroke="#312e49" stroke-width="2" /><text x="1860.0" y="1692.0" text-anchor="middle" font-size="18" fill="#0f172a" font-family="Microsoft YaHei, Arial, sans-serif">Fashion A</text><text x="1860.0" y="1716.0" text-anchor="middle" font-size="18" fill="#0f172a" font-family="Microsoft YaHei, Arial, sans-serif">gent</text><line x1="1860" y1="216" x2="1860" y2="1670" stroke="#312e49" stroke-width="2" stroke-dasharray="9 7" /><rect x="2060" y="160" rx="10" ry="10" width="180" height="56" fill="#ffffff" stroke="#312e49" stroke-width="2" /><text x="2150.0" y="182.0" text-anchor="middle" font-size="18" fill="#0f172a" font-family="Microsoft YaHei, Arial, sans-serif">Presentat</text><text x="2150.0" y="206.0" text-anchor="middle" font-size="18" fill="#0f172a" font-family="Microsoft YaHei, Arial, sans-serif">ion</text><rect x="2060" y="1670" rx="10" ry="10" width="180" height="56" fill="#ffffff" stroke="#312e49" stroke-width="2" /><text x="2150.0" y="1692.0" text-anchor="middle" font-size="18" fill="#0f172a" font-family="Microsoft YaHei, Arial, sans-serif">Presentat</text><text x="2150.0" y="1716.0" text-anchor="middle" font-size="18" fill="#0f172a" font-family="Microsoft YaHei, Arial, sans-serif">ion</text><line x1="2150" y1="216" x2="2150" y2="1670" stroke="#312e49" stroke-width="2" stroke-dasharray="9 7" /><rect x="2350" y="160" rx="10" ry="10" width="180" height="56" fill="#ffffff" stroke="#312e49" stroke-width="2" /><text x="2440.0" y="194.0" text-anchor="middle" font-size="18" fill="#0f172a" font-family="Microsoft YaHei, Arial, sans-serif">存储/日志</text><rect x="2350" y="1670" rx="10" ry="10" width="180" height="56" fill="#ffffff" stroke="#312e49" stroke-width="2" /><text x="2440.0" y="1704.0" text-anchor="middle" font-size="18" fill="#0f172a" font-family="Microsoft YaHei, Arial, sans-serif">存储/日志</text><line x1="2440" y1="216" x2="2440" y2="1670" stroke="#312e49" stroke-width="2" stroke-dasharray="9 7" /><rect x="350" y="760" width="1970" height="640" fill="#fafafa" stroke="#6b7280" stroke-width="2" /><rect x="350" y="760" width="70" height="45" rx="6" ry="6" fill="#ffffff" stroke="#6b7280" stroke-width="2" /><text x="385" y="790" text-anchor="middle" font-size="18" fill="#111827" font-family="Microsoft YaHei, Arial, sans-serif">loop</text><text x="1260" y="790" text-anchor="middle" font-size="20" fill="#111827" font-family="Microsoft YaHei, Arial, sans-serif">[候选地点已确认]</text><polyline points="120,260 410,260" fill="none" stroke="#312e49" stroke-width="4" /><polygon points="410,260 397.38643584936614,266.0743723476458 397.38643584936614,253.9256276523542" fill="#312e49" /><text x="265.0" y="252.0" font-size="16" fill="#334155" font-family="Microsoft YaHei, Arial, sans-serif">输入查询主题 / 地点 / 场景</text><polyline points="410,330 700,330" fill="none" stroke="#312e49" stroke-width="4" /><polygon points="700,330 687.3864358493661,336.0743723476458 687.3864358493661,323.9256276523542" fill="#312e49" /><text x="555.0" y="322.0" font-size="16" fill="#334155" font-family="Microsoft YaHei, Arial, sans-serif">POST /api/query</text><polyline points="700,410 990,410" fill="none" stroke="#312e49" stroke-width="4" /><polygon points="990,410 977.3864358493661,416.0743723476458 977.3864358493661,403.9256276523542" fill="#312e49" /><text x="845.0" y="402.0" font-size="16" fill="#334155" font-family="Microsoft YaHei, Arial, sans-serif">规划查询任务</text><polyline points="990,480 700,480" fill="none" stroke="#312e49" stroke-width="4" stroke-dasharray="10 6" /><polygon points="700,480 712.6135641506339,473.9256276523542 712.6135641506339,486.0743723476458" fill="#312e49" /><text x="845.0" y="472.0" font-size="16" fill="#334155" font-family="Microsoft YaHei, Arial, sans-serif">返回 QueryPlan</text><polyline points="700,560 1280,560" fill="none" stroke="#312e49" stroke-width="4" /><polygon points="1280,560 1267.386435849366,566.0743723476459 1267.386435849366,553.9256276523541" fill="#312e49" /><text x="990.0" y="552.0" font-size="16" fill="#334155" font-family="Microsoft YaHei, Arial, sans-serif">解析地点 / 候选确认</text><polyline points="1280,630 700,630" fill="none" stroke="#312e49" stroke-width="4" stroke-dasharray="10 6" /><polygon points="700,630 712.6135641506339,623.9256276523541 712.6135641506339,636.0743723476459" fill="#312e49" /><text x="990.0" y="622.0" font-size="16" fill="#334155" font-family="Microsoft YaHei, Arial, sans-serif">返回地点结果</text><polyline points="700,705 410,705" fill="none" stroke="#312e49" stroke-width="4" stroke-dasharray="10 6" /><polygon points="410,705 422.61356415063386,698.9256276523541 422.61356415063386,711.0743723476459" fill="#312e49" /><text x="555.0" y="697.0" font-size="16" fill="#334155" font-family="Microsoft YaHei, Arial, sans-serif">SSE 推送规划与地点状态</text><polyline points="700,870 1570,870" fill="none" stroke="#312e49" stroke-width="4" /><polygon points="1570,870 1557.386435849366,876.0743723476459 1557.386435849366,863.9256276523541" fill="#312e49" /><text x="1135.0" y="862.0" font-size="16" fill="#334155" font-family="Microsoft YaHei, Arial, sans-serif">查询天气</text><polyline points="1570,940 700,940" fill="none" stroke="#312e49" stroke-width="4" stroke-dasharray="10 6" /><polygon points="700,940 712.6135641506339,933.9256276523541 712.6135641506339,946.0743723476459" fill="#312e49" /><text x="1135.0" y="932.0" font-size="16" fill="#334155" font-family="Microsoft YaHei, Arial, sans-serif">返回天气结果</text><polyline points="700,1030 1860,1030" fill="none" stroke="#312e49" stroke-width="4" /><polygon points="1860,1030 1847.386435849366,1036.0743723476457 1847.386435849366,1023.9256276523541" fill="#312e49" /><text x="1280.0" y="1022.0" font-size="16" fill="#334155" font-family="Microsoft YaHei, Arial, sans-serif">生成穿搭建议（含知识检索）</text><polyline points="1860,1110 700,1110" fill="none" stroke="#312e49" stroke-width="4" stroke-dasharray="10 6" /><polygon points="700,1110 712.6135641506339,1103.9256276523543 712.6135641506339,1116.0743723476457" fill="#312e49" /><text x="1280.0" y="1102.0" font-size="16" fill="#334155" font-family="Microsoft YaHei, Arial, sans-serif">返回穿搭建议</text><polyline points="700,1180 2150,1180" fill="none" stroke="#312e49" stroke-width="4" /><polygon points="2150,1180 2137.386435849366,1186.0743723476457 2137.386435849366,1173.9256276523543" fill="#312e49" /><text x="1425.0" y="1172.0" font-size="16" fill="#334155" font-family="Microsoft YaHei, Arial, sans-serif">组装 view_model</text><polyline points="2150,1250 700,1250" fill="none" stroke="#312e49" stroke-width="4" stroke-dasharray="10 6" /><polygon points="700,1250 712.6135641506339,1243.9256276523543 712.6135641506339,1256.0743723476457" fill="#312e49" /><text x="1425.0" y="1242.0" font-size="16" fill="#334155" font-family="Microsoft YaHei, Arial, sans-serif">返回结果模型</text><polyline points="700,1320 2440,1320" fill="none" stroke="#312e49" stroke-width="4" /><polygon points="2440,1320 2427.386435849366,1326.0743723476457 2427.386435849366,1313.9256276523543" fill="#312e49" /><text x="1570.0" y="1312.0" font-size="16" fill="#334155" font-family="Microsoft YaHei, Arial, sans-serif">写日志 / trace / history</text><polyline points="700,1470 410,1470" fill="none" stroke="#312e49" stroke-width="4" stroke-dasharray="10 6" /><polygon points="410,1470 422.61356415063386,1463.9256276523543 422.61356415063386,1476.0743723476457" fill="#312e49" /><text x="555.0" y="1462.0" font-size="16" fill="#334155" font-family="Microsoft YaHei, Arial, sans-serif">SSE / HTTP 返回结果</text><polyline points="410,1550 120,1550" fill="none" stroke="#312e49" stroke-width="4" stroke-dasharray="10 6" /><polygon points="120,1550 132.61356415063386,1543.9256276523543 132.61356415063386,1556.0743723476457" fill="#312e49" /><text x="265.0" y="1542.0" font-size="16" fill="#334155" font-family="Microsoft YaHei, Arial, sans-serif">展示天气与穿搭结果</text>
</svg>